<svg xmlns="http://www.w3.org/2000/svg" width="36" height="36" viewBox="0 0 36 36">
    <g transform="translate(-1594 -613)">
        <circle cx="18" cy="18" r="18" fill="#dd784f" opacity="0.1" transform="translate(1594 613)"/>
        <g>
            <g>
                <g>
                    <path fill="#fff" stroke="#426572" d="M26.637 13.47H13.071a.6.6 0 0 0-.6.6v13.795a.6.6 0 0 0 1.1.339l6.405-6.1c.054-.081.12-.081.174 0l5.987 6.1a.592.592 0 0 0 .493.266.607.607 0 0 0 .184-.029.593.593 0 0 0 .426-.577v-13.79a.6.6 0 0 0-.603-.604zm-2.987 2.141h-.75a.249.249 0 1 1 0-.5h.747a.249.249 0 1 1 0 .5zm-2.951 0H14.46a.249.249 0 1 1 0-.5h6.24a.249.249 0 1 1 0 .5z" transform="translate(1591.632 610.53) translate(16.367 13.47) translate(-16.367 -13.47)"/>
                </g>
            </g>
        </g>
        <g fill="#00ba53" stroke="#426572" stroke-linecap="round" stroke-linejoin="round" transform="translate(1617 627)">
            <circle cx="3" cy="3" r="3" stroke="none"/>
            <circle cx="3" cy="3" r="3.5" fill="none"/>
        </g>
    </g>
</svg>
