<svg xmlns="http://www.w3.org/2000/svg" width="36" height="36" viewBox="0 0 36 36">
    <defs>
        <style>
            .cls-5{fill:#426572}
        </style>
    </defs>
    <g id="Group_7669" transform="translate(-156 -492)">
        <circle id="Ellipse_94" cx="18" cy="18" r="18" fill="#0e82fb" opacity="0.1" transform="translate(156 492)"/>
        <g id="_2879307" transform="translate(164.598 500.488)">
            <path id="Path_6259" fill="#fff" d="M14.659 10.32H2.9C1.715 10.32.75 8.4.75 6.035S1.715 1.75 2.9 1.75h11.759c1.19 0 2.155 1.918 2.155 4.285s-.965 4.285-2.155 4.285z" transform="translate(-.162 -.162)"/>
            <path id="Path_6261" fill="#e7e7e7" d="M14.659 17.06H2.9a2.155 2.155 0 1 1 0-4.31h11.759a2.155 2.155 0 0 1 0 4.31z" transform="translate(-.162 -2.543)"/>
            <path id="Path_6262" fill="#00ba53" d="M17.588 13.487l2.029 2.029.007.007c1.207 1.207.851 2.855-.367 4.072l-.858.858c-.868.855-2.127.943-4.08.024s-2.29-.238-2.717-.664c-.155-.155-.167-.509.346-1.022a2.692 2.692 0 0 1 2.186-.549l-3.692-3.692a.725.725 0 0 1 1.026-1.026l2.032 2.028a.725.725 0 0 1 1.026-1.026l.338.338a.725.725 0 0 1 1.026-1.026l.676.676a.726.726 0 0 1 1.027-1.027z" transform="translate(-2.214 -2.657)"/>
            <path id="Path_6263" d="M14.5 6.485H2.743a2.743 2.743 0 1 1 0-5.485H14.5a2.743 2.743 0 1 1 0 5.485zM2.743 2.175a1.567 1.567 0 1 0 0 3.134H14.5a1.567 1.567 0 0 0 0-3.134z" class="cls-5"/>
            <circle id="Ellipse_89" cx=".784" cy=".784" r=".784" class="cls-5" transform="translate(3.134 2.959)"/>
            <circle id="Ellipse_90" cx=".784" cy=".784" r=".784" class="cls-5" transform="translate(6.269 2.959)"/>
            <path id="Path_6264" d="M5.681 11.985H2.743a2.743 2.743 0 0 1 0-5.485H14.5a2.746 2.746 0 0 1 2.743 2.743 2.671 2.671 0 0 1-.091.7.588.588 0 0 1-1.134-.31 1.527 1.527 0 0 0 .049-.393A1.569 1.569 0 0 0 14.5 7.675H2.743a1.579 1.579 0 0 0-1.568 1.568 1.569 1.569 0 0 0 1.568 1.567h2.938a.588.588 0 0 1 0 1.175z" class="cls-5" transform="translate(0 -1.19)"/>
            <circle id="Ellipse_91" cx=".5" cy=".5" r=".5" class="cls-5" transform="translate(3.402 7.512)"/>
            <circle id="Ellipse_92" cx=".5" cy=".5" r=".5" class="cls-5" transform="translate(6.402 7.512)"/>
            <path id="Path_6265" d="M7.248 17.485H2.743a2.743 2.743 0 0 1 0-5.485h2.546a.588.588 0 0 1 0 1.175H2.743a1.579 1.579 0 0 0-1.567 1.567 1.569 1.569 0 0 0 1.567 1.568h4.505a.588.588 0 0 1 0 1.175z" class="cls-5" transform="translate(0 -2.38)"/>
            <circle id="Ellipse_93" cx=".784" cy=".784" r=".784" class="cls-5" transform="translate(3.134 11.579)"/>
            <path id="Path_6266" d="M16.729 21.548a6.492 6.492 0 0 1-2.719-.736 3.683 3.683 0 0 0-1.919-.479A1.216 1.216 0 0 1 11.062 20c-.353-.353-.473-1.056.349-1.876a2.19 2.19 0 0 1 1.037-.57l-2.6-2.6a1.326 1.326 0 0 1 1.875-1.875l1.157 1.156c.031-.039.065-.077.1-.113a1.326 1.326 0 0 1 1.153-.371 1.332 1.332 0 0 1 1.855-.53 1.461 1.461 0 0 1 .126-.146 1.32 1.32 0 0 1 .937-.389 1.318 1.318 0 0 1 .938.389l1.911 1.913c1.4 1.4 1.254 3.4-.347 5.006l-.7.7a2.9 2.9 0 0 1-2.124.854zm-4.438-2.4a5 5 0 0 1 2.223.6c2.19 1.041 3.054.561 3.512.11l.693-.693c.854-.854 1.458-2.239.357-3.34l-1.921-1.92a.151.151 0 0 0-.213.213l.523.522a.588.588 0 0 1-.832.831l-1.217-1.218a.15.15 0 0 0-.213 0 .17.17 0 0 0 0 .212l.869.87a.588.588 0 1 1-.831.831l-.87-.87-.346-.346a.15.15 0 0 0-.213 0 .17.17 0 0 0 0 .213l.87.87a.588.588 0 1 1-.831.831l-2.957-2.957a.149.149 0 0 0-.212 0 .147.147 0 0 0-.045.107.15.15 0 0 0 .044.107l3.559 3.559a.588.588 0 0 1 .11.679.594.594 0 0 1-.61.317 1.857 1.857 0 0 0-1.494.277 1.8 1.8 0 0 0-.176.2h.224z" class="cls-5" transform="translate(-2.046 -2.529)"/>
        </g>
    </g>
</svg>
