<svg xmlns="http://www.w3.org/2000/svg" width="35.04" height="19.678" viewBox="0 0 35.04 19.678">
  <g id="Bot" transform="translate(-53.96 -1025)">
    <g id="robot" transform="translate(53.96 1025)">
      <path id="Path_5849" data-name="Path 5849" d="M103.625,187.93H89.989a1.411,1.411,0,1,0,0,2.821h13.637a1.411,1.411,0,1,0,0-2.821ZM92.477,189.7a.394.394,0,0,1-.394.394h-.722a.394.394,0,0,1-.394-.394v-.722a.394.394,0,0,1,.394-.394h.722a.394.394,0,0,1,.394.394Zm10.169,0a.394.394,0,0,1-.394.394h-.722a.394.394,0,0,1-.394-.394v-.722a.394.394,0,0,1,.394-.394h.722a.394.394,0,0,1,.394.394Zm0,0" transform="translate(-82.767 -175.6)" fill="#90949c"/>
      <path id="Path_5850" data-name="Path 5850" d="M3.527,166.719a7.379,7.379,0,0,1-.312-2.054V163.25a7.71,7.71,0,0,1,.137-1.32H2.369a2.395,2.395,0,0,0,0,4.789Zm0,0" transform="translate(0 -151.306)" fill="#90949c"/>
      <path id="Path_5851" data-name="Path 5851" d="M375.4,161.93h-.983a7.709,7.709,0,0,1,.137,1.32v1.415a7.38,7.38,0,0,1-.312,2.054H375.4a2.395,2.395,0,0,0,0-4.789Zm0,0" transform="translate(-349.688 -151.306)" fill="#90949c"/>
      <path id="Path_5852" data-name="Path 5852" d="M81.011,92.244A6.314,6.314,0,0,0,74.7,85.93H67.314A6.314,6.314,0,0,0,61,92.244v1.412a6.314,6.314,0,0,0,6.314,6.314H74.7a6.314,6.314,0,0,0,6.314-6.314ZM77.857,96.23H64.22a2.2,2.2,0,0,1,0-4.4H77.857a2.2,2.2,0,0,1,0,4.4Zm0,0" transform="translate(-56.998 -80.292)" fill="#90949c"/>
      <path id="Path_5853" data-name="Path 5853" d="M353.909,1.844a1.821,1.821,0,0,0,1.449,1.8V10.23h.787V3.646a1.824,1.824,0,0,0,1.452-1.8,1.844,1.844,0,1,0-3.688,0Zm0,0" transform="translate(-330.689)" fill="#90949c"/>
    </g>
    <circle id="Ellipse_65" data-name="Ellipse 65" cx="1.5" cy="1.5" r="1.5" transform="translate(82 1025)" fill="#90949c"/>
    <circle id="Ellipse_66" data-name="Ellipse 66" cx="1.5" cy="1.5" r="1.5" transform="translate(86 1025)" fill="#90949c"/>
  </g>
</svg>
