<svg xmlns="http://www.w3.org/2000/svg" id="iconfinder_Calendar_728916" width="18.377" height="19.602" viewBox="0 0 18.377 19.602">
    <defs>
        <style>
            .cls-1{fill:#06131e}
        </style>
    </defs>
    <g id="Group_8">
        <g id="Group_7">
            <path id="Path_15" d="M19.927 1.225H18.7V.613a.613.613 0 0 0-1.225 0v.613h-1.223V.613a.613.613 0 0 0-1.225 0v.613H13.8V.613a.613.613 0 1 0-1.225 0v.613h-1.224V.613a.613.613 0 0 0-1.225 0v.613H8.9V.613a.613.613 0 0 0-1.225 0v.613H6.45A2.45 2.45 0 0 0 4 3.675v13.477A2.45 2.45 0 0 0 6.45 19.6h13.477a2.45 2.45 0 0 0 2.45-2.45V3.675a2.45 2.45 0 0 0-2.45-2.45zm1.225 15.927a1.226 1.226 0 0 1-1.225 1.225H6.45a1.226 1.226 0 0 1-1.225-1.225V3.675A1.226 1.226 0 0 1 6.45 2.45h1.225v.613a.613.613 0 0 0 1.225 0V2.45h1.225v.613a.613.613 0 0 0 1.225 0V2.45h1.225v.613a.613.613 0 1 0 1.225 0V2.45h1.225v.613a.613.613 0 0 0 1.225 0V2.45h1.225v.613a.613.613 0 0 0 1.225 0V2.45h1.225a1.226 1.226 0 0 1 1.225 1.225z" class="cls-1" transform="translate(-4)"/>
        </g>
    </g>
    <path id="Path_16" d="M20 40v10.932h13.361V40zm9.717 1.215v1.215H28.5v-1.215zm-4.859 3.644h-1.214v-1.215h1.215zm1.215-1.215h1.215v1.215h-1.215zm-1.215 2.429v1.215h-1.214v-1.215zm1.215 0h1.215v1.215h-1.215zm2.429 0h1.215v1.215H28.5zm0-1.215v-1.214h1.215v1.215zm-1.215-3.644v1.215h-1.214v-1.214zm-2.429 0v1.215h-1.214v-1.214zm-3.644 0h1.215v1.215h-1.214zm0 2.429h1.215v1.215h-1.214zm0 2.429h1.215v1.215h-1.214zm0 3.644V48.5h1.215v1.215zm2.429 0V48.5h1.215v1.215zm2.429 0V48.5h1.215v1.215zm2.429 0V48.5h1.215v1.215zm3.644 0h-1.213V48.5h1.215zm0-2.429h-1.213v-1.214h1.215zm0-2.429h-1.213v-1.214h1.215zm0-2.429h-1.213v-1.214h1.215z" class="cls-1" transform="translate(-17.492 -34.13)"/>
</svg>
