<svg xmlns="http://www.w3.org/2000/svg" width="28.944" height="28.944" viewBox="0 0 28.944 28.944">
  <g id="Change" transform="translate(-1840.528 -2000)">
    <g id="iconfinder_ic_low_priority_48px_3669334_2_" data-name="iconfinder_ic_low_priority_48px_3669334 (2)" transform="translate(1840.528 2000)">
      <path id="Path_6168" data-name="Path 6168" d="M18.472,10H28.12v2.412H18.472Zm0,6.633H28.12v2.412H18.472Zm0,6.633H28.12v2.412H18.472ZM4,17.839a7.847,7.847,0,0,0,7.839,7.839h.6V28.09l3.618-3.618-3.618-3.618v2.412h-.6a5.427,5.427,0,0,1,0-10.854H16.06V10H11.839A7.847,7.847,0,0,0,4,17.839Z" transform="translate(-1.588 -3.97)" fill="#bebfc3"/>
      <path id="Path_6169" data-name="Path 6169" d="M0,0H28.944V28.944H0Z" fill="none"/>
    </g>
  </g>
</svg>
