<svg xmlns="http://www.w3.org/2000/svg" width="22" height="22" viewBox="0 0 22 22">
  <g id="Dashboard_active" transform="translate(-3 -3)">
    <path id="Path_5781" data-name="Path 5781" d="M5,16.444A2.444,2.444,0,0,1,7.444,14h3.667a2.444,2.444,0,0,1,2.444,2.444v3.667a2.444,2.444,0,0,1-2.444,2.444H7.444A2.444,2.444,0,0,1,5,20.111Zm6.111,0H7.444v3.667h3.667Z" transform="translate(0.444 2.444)" fill="#1f009e" fill-rule="evenodd"/>
    <path id="Path_5782" data-name="Path 5782" d="M3,5.444A2.444,2.444,0,0,1,5.444,3h6.111A2.444,2.444,0,0,1,14,5.444v6.111A2.444,2.444,0,0,1,11.556,14H5.444A2.444,2.444,0,0,1,3,11.556Zm8.556,0H5.444v6.111h6.111Z" transform="translate(0 0)" fill="#00b952" fill-rule="evenodd"/>
    <path id="Path_5783" data-name="Path 5783" d="M14,16.444A2.444,2.444,0,0,1,16.444,14h3.667a2.444,2.444,0,0,1,2.444,2.444v3.667a2.444,2.444,0,0,1-2.444,2.444H16.444A2.444,2.444,0,0,1,14,20.111Zm6.111,0H16.444v3.667h3.667Z" transform="translate(2.444 2.444)" fill="#1f009e" fill-rule="evenodd"/>
    <path id="Path_5784" data-name="Path 5784" d="M14,7.444A2.444,2.444,0,0,1,16.444,5h3.667a2.444,2.444,0,0,1,2.444,2.444v3.667a2.444,2.444,0,0,1-2.444,2.444H16.444A2.444,2.444,0,0,1,14,11.111Zm6.111,0H16.444v3.667h3.667Z" transform="translate(2.444 0.444)" fill="#1f009e" fill-rule="evenodd"/>
  </g>
</svg>
