<svg xmlns="http://www.w3.org/2000/svg" width="36" height="36" viewBox="0 0 36 36">
    <defs>
        <style>
            .cls-3{fill:#fff}.cls-4{fill:#00ba53}.cls-5{fill:#26009a}.cls-8{fill:#426572}
        </style>
    </defs>
    <g id="Group_7658" transform="translate(-1594 -345)">
        <circle id="Ellipse_55" cx="18" cy="18" r="18" fill="#0e82fb" opacity="0.1" transform="translate(1594 345)"/>
        <g id="contract" transform="translate(1603.345 352.965)">
            <g id="Group_65" transform="translate(.283 .605)">
                <g id="Group_62">
                    <g id="Group_56" transform="translate(1.156)">
                        <path id="Path_6167" fill="#e7e7e7" d="M38.5 24.586l11.142.745a.377.377 0 0 0 .4-.351l1.069-16.01a.377.377 0 0 0-.351-.4l-11.142-.747a.377.377 0 0 0-.4.351l-1.071 16.01a.377.377 0 0 0 .353.402z" transform="translate(-38.144 -7.822)"/>
                    </g>
                    <g id="Group_61" transform="translate(0 1.919)">
                        <g id="Group_60">
                            <g id="Group_59">
                                <g id="Group_58">
                                    <g id="Group_57">
                                        <path id="Path_6168" d="M7.877 75.512h8.529l3.016-3V59.089a.377.377 0 0 0-.377-.377H7.877a.377.377 0 0 0-.377.377v16.046a.377.377 0 0 0 .377.377z" class="cls-3" transform="translate(-7.5 -58.712)"/>
                                    </g>
                                    <path id="Path_6169" d="M275.11 58.712h-1.51a.377.377 0 0 1 .377.377V72.51l-.01 1.511 1.518-1.511V59.089a.377.377 0 0 0-.375-.377z" class="cls-3" transform="translate(-263.565 -58.712)"/>
                                </g>
                            </g>
                        </g>
                        <path id="Path_6170" d="M243.64 426.951V424.3a.377.377 0 0 1 .377-.377h2.638z" class="cls-3" transform="translate(-234.734 -410.15)"/>
                    </g>
                </g>
                <g id="Group_64" transform="translate(15.045 6.539)">
                    <path id="Path_6171" d="M436.523 183.752l-1.259.006v-1.917a.632.632 0 0 1 .629-.63.625.625 0 0 1 .63.625v1.916z" class="cls-4" transform="translate(-434.177 -181.211)"/>
                    <path id="Path_6172" d="M436.3 394.33a2.067 2.067 0 0 1-.611-1.465v-2.79a.044.044 0 0 1 .044-.044l1.133-.006a.044.044 0 0 1 .044.044v2.794a2.067 2.067 0 0 1-.6 1.462z" class="cls-5" transform="translate(-434.587 -382.15)"/>
                    <path id="Path_6173" d="M426.8 226.919a.979.979 0 0 1-.986-.978v-8.053a.464.464 0 0 1 .462-.464l1.042-.005a.465.465 0 0 1 .467.464v8.049a.989.989 0 0 1-.985.987z" class="cls-4" transform="translate(-425.078 -216.052)"/>
                    <path id="Path_6174" fill="#05863f" d="M440.124 217.417h-.9a.464.464 0 0 1 .4.46v8.05a.987.987 0 0 1-.509.863.979.979 0 0 0 .484.124.989.989 0 0 0 .985-.987v-8.049a.464.464 0 0 0-.46-.461z" transform="translate(-437.889 -216.051)"/>
                    <path id="Path_6175" fill="#5c2ced" d="M409.633 247.925l-2.7.013a.5.5 0 0 0-.5.5.5.5 0 0 0 .5.495l2.2-.011v2.922a.5.5 0 0 0 .5.495.5.5 0 0 0 .5-.5v-3.42a.5.5 0 0 0-.5-.494z" transform="translate(-406.433 -245.409)"/>
                    <g id="Group_63" transform="translate(1.744 2.516)">
                        <path id="Path_6176" d="M454.122 247.925l-1.45.007-.006.992h.957v2.922a.5.5 0 0 0 .5.495.5.5 0 0 0 .5-.5v-3.42a.5.5 0 0 0-.501-.496z" class="cls-5" transform="translate(-452.666 -247.925)"/>
                    </g>
                </g>
            </g>
            <g id="Group_66" transform="translate(0 .322)">
                <path id="Path_6177" d="M14.073 1.069L2.931.324a.661.661 0 0 0-.7.614l-.087 1.3H.66A.661.661 0 0 0 0 2.9v16.047a.661.661 0 0 0 .66.66h8.529a.286.286 0 0 0 .2-.082l1.287-1.282a.281.281 0 0 0 .04.006l2.2.147a.676.676 0 0 0 .7-.614l1.071-16.01a.666.666 0 0 0-.614-.7zM9.472 18.64v-1.965a.094.094 0 0 1 .094-.094h1.957zm3.581-.9a.094.094 0 0 1-.1.088l-1.745-.117 1.2-1.192a.283.283 0 0 0 .083-.2V2.9a.661.661 0 0 0-.66-.66H8.886a.283.283 0 0 0 0 .566h2.941a.094.094 0 0 1 .094.094v13.115H9.566a.661.661 0 0 0-.66.66v2.367H.66a.094.094 0 0 1-.094-.094V2.9a.094.094 0 0 1 .094-.093h6.719a.283.283 0 0 0 0-.566H2.708L2.792.976a.094.094 0 0 1 .1-.088l11.142.745a.094.094 0 0 1 .088.1z" class="cls-8" transform="translate(0 -.322)"/>
                <path id="Path_6178" d="M63.771 237.047h-7.714a.283.283 0 0 0 0 .566h7.714a.283.283 0 0 0 0-.566z" class="cls-8" transform="translate(-53.671 -228.119)"/>
                <path id="Path_6179" d="M63.771 289.332h-7.714a.283.283 0 1 0 0 .566h7.714a.283.283 0 1 0 0-.566z" class="cls-8" transform="translate(-53.671 -278.432)"/>
                <path id="Path_6180" d="M55.774 185.045a.283.283 0 0 0 .283.283h7.714a.283.283 0 0 0 0-.566h-7.714a.283.283 0 0 0-.283.283z" class="cls-8" transform="translate(-53.671 -177.806)"/>
                <path id="Path_6181" d="M91.807 132.76a.283.283 0 0 0 .283.283h5a.283.283 0 1 0 0-.566h-5a.283.283 0 0 0-.283.283z" class="cls-8" transform="translate(-88.345 -127.493)"/>
                <path id="Path_6182" d="M58.694 388.829h-2.039c-.31 0-.519-.062-.588-.4-.059-.288-.466-.249-.545 0-.2.616-.519.375-.7-.04a5.8 5.8 0 0 1-.306-1.316c-.058-.323-.547-.233-.556.075a5.27 5.27 0 0 1-.152 1.2 9.611 9.611 0 0 1-.423 1.183c-.138.338.41.483.545.15a10.923 10.923 0 0 0 .384-1.045c.194.466.595.993 1.166.683a1.139 1.139 0 0 0 .293-.236 1.383 1.383 0 0 0 1.153.316h1.768a.283.283 0 0 0 0-.57z" class="cls-4" transform="translate(-51.349 -372.292)"/>
                <path id="Path_6183" d="M403.573 177.253a.814.814 0 0 0-.554-.227h-.214v-.4a.783.783 0 0 0-.356-.636v-.569a.913.913 0 0 0-1.824.005v.569a.748.748 0 0 0-.357.636v.414a.781.781 0 0 0 0 1.555c.006 1.266.006 2.512 0 3.8a.283.283 0 0 0 .566 0c.007-1.289.007-2.535 0-3.8l1.4-.007v6.064a.7.7 0 0 1-1.4-.01v-.516a.283.283 0 0 0-.565-.034v.484a1.389 1.389 0 0 0 .377 1.013 2.366 2.366 0 0 0 .693 1.582.3.3 0 0 0 .405-.007 2.332 2.332 0 0 0 .685-1.6 1.167 1.167 0 0 0 .374-1.014v-2.578a.793.793 0 0 0 1-.752V177.8a.772.772 0 0 0-.23-.547zm-2.739-.216v-.409a.182.182 0 0 1 .135-.175l1.132-.006a.178.178 0 0 1 .138.175v.407zm.7-1.961a.368.368 0 0 1 .345.342v.459h-.693v-.457a.349.349 0 0 1 .352-.345zm0 11.461a1.8 1.8 0 0 1-.28-.619 1.231 1.231 0 0 0 .561-.007 1.765 1.765 0 0 1-.277.626zm1.7-5.314a.216.216 0 0 1-.432 0v-2.922a.285.285 0 0 0-.285-.283l-2.2.011a.215.215 0 0 1 0-.429l2.7-.013a.212.212 0 0 1 .215.212v3.42z" class="cls-8" transform="translate(-384.492 -167.971)"/>
            </g>
        </g>
    </g>
</svg>
