<svg xmlns="http://www.w3.org/2000/svg" id="_2312041" width="24.001" height="24" viewBox="0 0 24.001 24">
    <defs>
        <style>
            .cls-1{fill:#90949c}
        </style>
    </defs>
    <path id="Path_7015" d="M17 22a5 5 0 1 1 5-5 5.006 5.006 0 0 1-5 5zm0-8.5a3.5 3.5 0 1 0 3.5 3.5 3.5 3.5 0 0 0-3.5-3.5z" class="cls-1"/>
    <path id="Path_7016" d="M23.25 24a.744.744 0 0 1-.53-.22l-3.25-3.25a.75.75 0 0 1 1.061-1.061l3.25 3.25A.75.75 0 0 1 23.25 24z" class="cls-1"/>
    <path id="Path_7017" d="M10.53 21H2.75A2.752 2.752 0 0 1 0 18.25V2.75A2.752 2.752 0 0 1 2.75 0h11.5A2.752 2.752 0 0 1 17 2.75v7.04a.75.75 0 1 1-1.5 0V2.75a1.252 1.252 0 0 0-1.25-1.25H2.75A1.252 1.252 0 0 0 1.5 2.75v15.5a1.252 1.252 0 0 0 1.25 1.25h7.78a.75.75 0 0 1 0 1.5z" class="cls-1"/>
    <path id="Path_7018" d="M13.25 9.5h-9.5a.75.75 0 0 1 0-1.5h9.5a.75.75 0 0 1 0 1.5z" class="cls-1"/>
    <path id="Path_7019" d="M9.25 13.5h-5.5a.75.75 0 0 1 0-1.5h5.5a.75.75 0 0 1 0 1.5z" class="cls-1"/>
    <path id="Path_7020" d="M8.25 5.5h-4.5a.75.75 0 0 1 0-1.5h4.5a.75.75 0 0 1 0 1.5z" class="cls-1"/>
</svg>
