<svg xmlns="http://www.w3.org/2000/svg" width="17.525" height="21.146" viewBox="0 0 17.525 21.146">
    <defs>
        <style>
            .cls-1{fill:#6ca7fa}
        </style>
    </defs>
    <g id="_2874774" transform="translate(-44.5 511.619)">
        <path id="Path_7058" d="M49.01-511.585a2.138 2.138 0 0 0-1.456 1.134 1.507 1.507 0 0 0-.17.894l-.017.567-.9.012c-.865.012-.9.017-1.125.12a1.42 1.42 0 0 0-.707.691l-.137.277v16.342l.108.232a1.42 1.42 0 0 0 .691.707l.277.137H58.07l.236-.116a1.642 1.642 0 0 0 .732-.794 2.485 2.485 0 0 0 .087-.968v-.741l.633-.021a2.563 2.563 0 0 0 .873-.108 2.1 2.1 0 0 0 1.345-1.485c.066-.31.066-15.014 0-15.324a2.115 2.115 0 0 0-1.345-1.489l-.244-.1h-5.585c-3.413-.004-5.664.008-5.792.033zm11.224 1.336a.828.828 0 0 1 .405.36c.087.17.087 14.873 0 15.043-.165.323-.414.422-1.038.422h-.476v-6.7c0-6.673 0-6.7-.087-6.93a1.642 1.642 0 0 0-.732-.794l-.236-.116-4.683-.012-4.688-.008v-.426c0-.381.008-.439.1-.571a.817.817 0 0 1 .439-.3c.033-.012 2.486-.025 5.453-.025 4.773-.005 5.409.006 5.543.057zm-2.453 10.529v7.923H45.824l-.012-7.881c0-4.336 0-7.906.012-7.935s1.233-.05 5.987-.041l5.97.012z" class="cls-1"/>
        <path id="Path_7059" d="M132.5-327.72a.68.68 0 0 0-.376.749.708.708 0 0 0 .43.476c.1.033 1.212.041 3.45.033 3.256-.012 3.3-.012 3.409-.1a.584.584 0 0 0 .285-.554.584.584 0 0 0-.285-.554c-.112-.087-.153-.087-3.45-.1a30.863 30.863 0 0 0-3.463.05z" class="cls-1" transform="translate(-83.987 -176.244)"/>
        <path id="Path_7060" d="M132.5-263.72a.68.68 0 0 0-.376.749.708.708 0 0 0 .43.476c.1.033 1.212.041 3.45.033 3.256-.012 3.3-.012 3.409-.1a.584.584 0 0 0 .285-.554.584.584 0 0 0-.285-.554c-.112-.087-.153-.087-3.45-.1a30.863 30.863 0 0 0-3.463.05z" class="cls-1" transform="translate(-83.987 -237.596)"/>
        <path id="Path_7061" d="M132.5-199.72a.68.68 0 0 0-.376.749.708.708 0 0 0 .43.476c.1.033 1.212.041 3.45.033 3.256-.012 3.3-.012 3.409-.1a.584.584 0 0 0 .285-.554.584.584 0 0 0-.285-.554c-.112-.087-.153-.087-3.45-.1a30.857 30.857 0 0 0-3.463.05z" class="cls-1" transform="translate(-83.987 -298.948)"/>
    </g>
</svg>
