<svg xmlns="http://www.w3.org/2000/svg" width="36" height="36" viewBox="0 0 36 36">
  <g id="Group_7674" data-name="Group 7674" transform="translate(-1594 -117)">
    <circle id="Ellipse_49" data-name="Ellipse 49" cx="18" cy="18" r="18" transform="translate(1594 117)" fill="#fff" opacity="0.1"/>
    <g id="Layer_2" data-name="Layer 2" transform="translate(1600.986 125.652)">
      <g id="Layer_1" data-name="Layer 1" transform="translate(0.014 0.012)">
        <rect id="Rectangle_6986" data-name="Rectangle 6986" width="15.127" height="16.704" rx="7.563" transform="translate(4.454 1.012)" fill="#fff"/>
        <path id="Path_6147" data-name="Path 6147" d="M111.251,23.64V36.725a1.73,1.73,0,0,1-1.638,1.81H97.763a1.715,1.715,0,0,1-1.633-1.68h11.455a1.73,1.73,0,0,0,1.638-1.81V21.96a1.1,1.1,0,0,0-.005-.13h.394A1.73,1.73,0,0,1,111.251,23.64Z" transform="translate(-91.67 -20.818)" fill="#e7e7e7"/>
        <path id="Path_6148" data-name="Path 6148" d="M104.506,33.091H91.179A1.18,1.18,0,0,1,90,31.913v-14.9a1.18,1.18,0,0,1,1.178-1.178h13.328a1.18,1.18,0,0,1,1.178,1.178v14.9A1.18,1.18,0,0,1,104.506,33.091Zm-13.327-16.7a.622.622,0,0,0-.622.621v14.9a.622.622,0,0,0,.621.621h13.328a.622.622,0,0,0,.621-.621v-14.9a.622.622,0,0,0-.621-.621Z" transform="translate(-85.825 -15.096)" fill="#426572"/>
        <path id="Path_6149" data-name="Path 6149" d="M6.332,4.825h0a1.166,1.166,0,0,1,1.62.305L14.7,15.01a13.729,13.729,0,0,1,1.787,3.715l.079.259a.483.483,0,0,1-.762.515l-.18-.139a13.729,13.729,0,0,1-2.875-3.068L6.027,6.445a1.166,1.166,0,0,1,.3-1.62Z" transform="translate(-2.357 -7.007) rotate(25)" fill="#00ba53"/>
        <path id="Path_6150" data-name="Path 6150" d="M15.551,20.5a.483.483,0,0,1-.781.4l-.18-.139a13.726,13.726,0,0,1-2.877-3.068L4.991,7.84a1.167,1.167,0,0,1,.683-1.79,1.166,1.166,0,0,0-.01,1.329l6.723,9.844a13.726,13.726,0,0,0,2.877,3.068l.18.139a.507.507,0,0,0,.105.067Z" transform="translate(-0.887 -7.823) rotate(25)" fill="#05863f"/>
        <ellipse id="Ellipse_50" data-name="Ellipse 50" cx="0.178" cy="1.348" rx="0.178" ry="1.348" transform="matrix(0.985, -0.174, 0.174, 0.985, 1.879, 3.461)" fill="#fff"/>
        <ellipse id="Ellipse_51" data-name="Ellipse 51" cx="0.178" cy="0.674" rx="0.178" ry="0.674" transform="matrix(0.985, -0.174, 0.174, 0.985, 1.548, 1.524)" fill="#fff"/>
        <path id="Path_6151" data-name="Path 6151" d="M10.57,15.55a.757.757,0,0,1-.469-.165l-.18-.139a13.991,13.991,0,0,1-2.933-3.13L.265,2.271A1.445,1.445,0,0,1,2.65.64L9.4,10.521a13.994,13.994,0,0,1,1.824,3.79l.079.259a.751.751,0,0,1-.3.846A.761.761,0,0,1,10.57,15.55ZM1.455.568A.888.888,0,0,0,.725,1.956L7.449,11.8a13.435,13.435,0,0,0,2.816,3.005l.18.139a.2.2,0,0,0,.325-.218l-.078-.255A13.436,13.436,0,0,0,8.94,10.833L2.19.956A.882.882,0,0,0,1.622.584.9.9,0,0,0,1.455.568Z" transform="translate(0.807 -0.681) rotate(25)" fill="#426572"/>
        <rect id="Rectangle_6987" data-name="Rectangle 6987" width="4.362" height="0.557" transform="translate(11.994 14.909)" fill="#426572"/>
        <rect id="Rectangle_6988" data-name="Rectangle 6988" width="6.264" height="0.557" transform="translate(10.092 9.527)" fill="#426572"/>
        <rect id="Rectangle_6994" data-name="Rectangle 6994" width="6.264" height="0.557" transform="translate(10.092 13.527)" fill="#00ba53"/>
        <rect id="Rectangle_6989" data-name="Rectangle 6989" width="6.264" height="0.557" transform="translate(10.092 8.054)" fill="#426572"/>
        <rect id="Rectangle_6990" data-name="Rectangle 6990" width="6.264" height="0.557" transform="translate(10.092 6.581)" fill="#426572"/>
        <rect id="Rectangle_6991" data-name="Rectangle 6991" width="6.264" height="0.557" transform="translate(10.092 5.108)" fill="#426572"/>
        <rect id="Rectangle_6992" data-name="Rectangle 6992" width="6.264" height="0.557" transform="translate(10.092 3.635)" fill="#426572"/>
      </g>
    </g>
  </g>
</svg>
