<svg xmlns="http://www.w3.org/2000/svg" width="36" height="36" viewBox="0 0 36 36">
    <g transform="translate(-28 -28)">
        <circle cx="18" cy="18" r="18" fill="#0e82fb" opacity="0.1" transform="translate(28 28)"/>
        <path fill="#00ba53" d="M13.155 20.063a3.418 3.418 0 0 1-2.418-5.837l4.837-4.836A1.14 1.14 0 0 1 17.186 11l-4.837 4.837a1.14 1.14 0 1 0 1.612 1.612L20.41 11a3.419 3.419 0 0 0 0-4.837 3.5 3.5 0 0 0-4.837 0L10.737 11a1.14 1.14 0 1 1-1.612-1.61l4.837-4.837a5.833 5.833 0 0 1 8.061 0 5.7 5.7 0 0 1 0 8.061l-6.449 6.449a3.413 3.413 0 0 1-2.419 1z" transform="translate(30.209 34.063)"/>
    </g>
</svg>
