<svg xmlns="http://www.w3.org/2000/svg" width="58.989" height="43.93" viewBox="0 0 58.989 43.93">
    <g fill="#dd784f">
        <path d="M4232.987-270.749c25.5 30.361 50.185 29.409 58.948 29.409 0-1.576.052-9.974.038-14.549-.014-5.541-.022-5.7-.022-10.138a4.984 4.984 0 0 0-1.008-3.685c-1.052-1.231-2.428-1.441-5.378-1.267-6.788 0-13.684.011-17.479-.064-25.886-.51-35.099.294-35.099.294z" opacity="0.2" transform="translate(-1852.987 -186.788) translate(-2380 458)"/>
        <path d="M4280.39-266.683l-42.585 31.39h42.586v-14.408z" opacity="0.1" transform="translate(-1852.987 -186.788) translate(-2368.438 466.011)"/>
    </g>
</svg>
