<svg xmlns="http://www.w3.org/2000/svg" width="45.529" height="33.907" viewBox="0 0 45.529 33.907">
    <g fill="#fff">
        <path d="M4232.987-270.855c19.679 23.434 38.734 22.7 45.5 22.7 0-1.217.04-7.7.029-11.229-.011-4.276-.017-4.4-.017-7.825a3.847 3.847 0 0 0-.778-2.844c-.812-.95-1.874-1.112-4.151-.978-5.239 0-10.561.008-13.49-.049-19.985-.395-27.093.225-27.093.225z" opacity="0.2" transform="translate(-1852.987 -186.788) translate(-2380 458)"/>
        <path d="M4270.673-266.683l-32.873 24.227h32.869v-11.12z" opacity="0.1" transform="translate(-1852.987 -186.788) translate(-2372.176 463.15)"/>
    </g>
</svg>
