<svg xmlns="http://www.w3.org/2000/svg" width="36" height="36" viewBox="0 0 36 36">
    <defs>
        <style>
            .cls-2{fill:#fff}.cls-3{fill:#00ba53}
        </style>
    </defs>
    <g id="Group_8105" transform="translate(-983 -109)">
        <circle id="Ellipse_52" cx="18" cy="18" r="18" fill="#0e82fb" opacity="0.1" transform="translate(983 109)"/>
        <g id="_2274984" transform="translate(879.227 114)">
            <path id="Path_6986" d="M296.406 7.5h9.148v10.673h-9.148z" class="cls-2" transform="translate(-178.948 -7.123)"/>
            <path id="Path_6987" d="M304.741 7.5v9.352a.508.508 0 0 1-.508.508h-7.827v.813h9.148V7.5z" class="cls-3" transform="translate(-178.948 -7.123)"/>
            <path id="Path_6988" d="M326.711 37.805h1.525v1.525h-1.525z" class="cls-3" transform="translate(-207.728 -35.903)"/>
            <path id="Path_6989" d="M296.406 292.366h9.148v10.673h-9.148z" class="cls-2" transform="translate(-178.948 -277.656)"/>
            <path id="Path_6990" d="M304.741 292.366v9.352a.508.508 0 0 1-.508.508h-7.827v.813h9.148v-10.673z" class="cls-3" transform="translate(-178.948 -277.656)"/>
            <path id="Path_6991" d="M326.711 322.671h6.1v1.529h-6.1z" class="cls-3" transform="translate(-207.728 -306.437)"/>
            <path id="Path_6992" fill="#426572" d="M126.606 4.629a.377.377 0 0 0 .377-.377V.377a.377.377 0 0 0-.377-.377h-9.148a.377.377 0 0 0-.377.377v4.959h-1.859a.377.377 0 0 0-.377.377v14.331a.377.377 0 0 0 .377.377h1.859v4.959a.377.377 0 0 0 .377.377h9.148a.377.377 0 0 0 .377-.377v-5.03a.377.377 0 1 0-.755 0v4.652h-8.394v-9.915h8.394v3.5a.377.377 0 1 0 .755 0V14.71a.377.377 0 0 0-.377-.377h-9.148a.377.377 0 0 0-.377.377v4.959H115.6V6.091h1.482v4.959a.377.377 0 0 0 .377.377h9.148a.377.377 0 0 0 .377-.377V6.021a.377.377 0 1 0-.755 0v4.652h-8.394V.755h8.394v3.5a.377.377 0 0 0 .377.377z"/>
            <path id="Path_6993" d="M380.37 30.3h-3.2a.377.377 0 1 0 0 .755h3.2a.377.377 0 1 0 0-.755z" transform="translate(-255.288 -28.78)"/>
            <path id="Path_6994" d="M380.37 60.61h-3.2a.377.377 0 1 0 0 .755h3.2a.377.377 0 1 0 0-.755z" transform="translate(-255.288 -57.561)"/>
            <path id="Path_6995" d="M325.687 90.915h-6.1a.377.377 0 1 0 0 .755h6.1a.377.377 0 1 0 0-.755z" transform="translate(-200.605 -86.341)"/>
            <path id="Path_6996" d="M326.065 121.6a.377.377 0 0 0-.377-.377h-6.1a.377.377 0 1 0 0 .755h6.1a.377.377 0 0 0 .377-.378z" transform="translate(-200.605 -115.121)"/>
            <path id="Path_6997" d="M319.588 151.524a.377.377 0 1 0 0 .755h1.982a.377.377 0 1 0 0-.755z" transform="translate(-200.605 -143.9)"/>
            <path id="Path_6998" d="M319.588 32.584h1.525a.377.377 0 0 0 .377-.377v-1.525a.377.377 0 0 0-.377-.377h-1.525a.377.377 0 0 0-.377.377v1.525a.377.377 0 0 0 .377.377zm.377-1.525h.77v.77h-.77z" transform="translate(-200.605 -28.78)"/>
            <path id="Path_6999" d="M325.687 375.78h-6.1a.377.377 0 1 0 0 .755h6.1a.377.377 0 1 0 0-.755z" transform="translate(-200.605 -356.874)"/>
            <path id="Path_7000" d="M326.065 406.462a.377.377 0 0 0-.377-.377h-6.1a.377.377 0 1 0 0 .755h6.1a.377.377 0 0 0 .377-.378z" transform="translate(-200.605 -385.654)"/>
            <path id="Path_7001" d="M319.588 436.39a.377.377 0 1 0 0 .755h1.982a.377.377 0 1 0 0-.755z" transform="translate(-200.605 -414.434)"/>
            <path id="Path_7002" d="M326.065 315.548a.377.377 0 0 0-.377-.377h-6.1a.377.377 0 0 0-.377.377v1.525a.377.377 0 0 0 .377.377h6.1a.377.377 0 0 0 .377-.377zm-.755 1.147h-5.344v-.77h5.344z" transform="translate(-200.605 -299.314)"/>
        </g>
    </g>
</svg>
