<svg xmlns="http://www.w3.org/2000/svg" width="36" height="36" viewBox="0 0 36 36">
    <defs>
        <style>
            .cls-2{fill:#fff}.cls-3{fill:#00ba53}.cls-4{fill:#05863f}.cls-6{fill:#426572}
        </style>
    </defs>
    <g id="Group_7657" transform="translate(-1594 -219)">
        <circle id="Ellipse_52" cx="18" cy="18" r="18" fill="#fff" opacity="0.1" transform="translate(1594 219)"/>
        <g id="signing" transform="translate(1605.145 227.14)">
            <path id="Path_6152" d="M8.26 8.258v15.1l2.44.795.976 1.987h11.513V8.258z" class="cls-2" transform="translate(-9.346 -7.96)"/>
            <path id="Path_6153" d="M406.318 133.21l-.2-1.321-1.321-.2-.843.843.2 1.321 1.321.2z" class="cls-3" transform="rotate(-14.98 -280.793 1542.008)"/>
            <path id="Path_6154" d="M186.414 367.773a.2.2 0 1 0 .281.281l1.238-.729.167-.957-.957.167z" class="cls-4" transform="rotate(-14.98 -1244.386 859.324)"/>
            <path id="Path_6155" d="M209.207 321.989l-1.042 1.769.79.79 1.769-1.042-.2-1.321z" class="cls-4" transform="rotate(-14.98 -1071.505 917.667)"/>
            <path id="Path_6156" d="M429.758 99.137a1.073 1.073 0 0 0-1.518-1.518l-.928.928 1.518 1.518z" class="cls-4" transform="rotate(-14.98 -143.716 1610.84)"/>
            <path id="Rectangle_6993" d="M0 0H8.522V2.146H0z" class="cls-3" transform="rotate(120 7.488 7.153)"/>
            <path id="Path_6157" fill="#d6ced1" d="M8.26 426.667l2.782 2.782v-2.782z" transform="translate(-7.96 -411.265)"/>
            <path id="Path_6158" d="M14.582 12.147a.327.327 0 0 0-.349.3v5.441H3.957V15.4a.327.327 0 0 0-.349-.3H.7V.6h13.533v5.437a.353.353 0 0 0 .7 0V.3a.327.327 0 0 0-.349-.3H.351A.327.327 0 0 0 0 .3v15.1a.25.25 0 0 0 0 .03v.029c0 .008 0 .017.007.025 0 .008.006.016.01.024l.012.022.014.019v.006l.015.017.005.006.023.022 3.275 2.8.025.02h.007l.02.013h.007l.023.012h.005l.026.01.028.009.029.006h11.051a.327.327 0 0 0 .349-.3v-5.725a.326.326 0 0 0-.349-.298zM3.259 17.465L1.193 15.7h2.066z" class="cls-6" transform="translate(-1.088)"/>
            <path id="Path_6159" d="M213.686 430.015a.3.3 0 0 0 0-.6h-2.56a.3.3 0 1 0 0 .6z" class="cls-6" transform="translate(-203.215 -413.918)"/>
            <path id="Path_6160" d="M63.537 77.075h-8.183a.3.3 0 1 0 0 .6h8.183a.3.3 0 1 0 0-.6z" class="cls-6" transform="translate(-53.067 -74.293)"/>
            <path id="Path_6161" d="M63.537 121.118h-8.183a.3.3 0 1 0 0 .6h8.183a.3.3 0 1 0 0-.6z" class="cls-6" transform="translate(-53.067 -116.746)"/>
            <path id="Path_6162" d="M63.537 165.161h-8.183a.3.3 0 0 0 0 .6h8.183a.3.3 0 1 0 0-.6z" class="cls-6" transform="translate(-53.067 -159.199)"/>
            <path id="Path_6163" d="M63.835 209.5a.3.3 0 0 0-.3-.3h-8.181a.3.3 0 0 0 0 .6h8.183a.3.3 0 0 0 .298-.3z" class="cls-6" transform="translate(-53.067 -201.652)"/>
            <path id="Path_6164" d="M62.42 253.545a.3.3 0 0 0-.3-.3h-6.766a.3.3 0 1 0 0 .6h6.767a.3.3 0 0 0 .299-.3z" class="cls-6" transform="translate(-53.067 -244.105)"/>
            <path id="Path_6165" d="M55.354 297.29a.3.3 0 0 0 0 .6h4.091a.3.3 0 0 0 0-.6z" class="cls-6" transform="translate(-53.067 -286.558)"/>
            <path id="Path_6166" d="M189.75 89.448a1.372 1.372 0 0 0-1.939 0l-.927.928-.843.843-6.026 6.026a.3.3 0 0 0-.023.026l-.005.007-.015.022-1.756 2.982a.5.5 0 0 0 .7.7l2.982-1.756.022-.015.007-.005a.291.291 0 0 0 .026-.023l6.026-6.026.843-.843.927-.927a1.373 1.373 0 0 0 .001-1.939zm-1.981 3.078l-1.1-1.1.422-.422 1.1 1.1zm-6.026 6.026l-1.1-1.1 5.6-5.6 1.1 1.1zm-1.721 1.089l-.464-.464.729-1.238.973.973zm-1.128.664l.352-.6.246.246zm10.436-9.34l-.717.717-1.1-1.1.717-.717a.775.775 0 0 1 1.1 1.1z" class="cls-6" transform="rotate(-14.98 -233.875 695.167)"/>
            <ellipse id="Ellipse_53" cx=".178" cy="1.348" class="cls-2" rx=".178" ry="1.348" transform="scale(-1) rotate(29 13.596 -30.337)"/>
            <ellipse id="Ellipse_54" cx=".178" cy=".674" class="cls-2" rx=".178" ry=".674" transform="scale(-1) rotate(29 7.187 -31.974)"/>
        </g>
    </g>
</svg>
