<svg xmlns="http://www.w3.org/2000/svg" width="30" height="30" viewBox="0 0 30 30">
    <defs>
        <style>
            .cls-1{fill:#083a6f}
        </style>
    </defs>
    <g id="Layer_2" transform="translate(-1 -1)">
        <path id="Path_7003" d="M1 16a15 15 0 1 1 15 15A15 15 0 0 1 1 16zm28 0a13 13 0 1 0-13 13 13 13 0 0 0 13-13z" class="cls-1"/>
        <path id="Path_7004" d="M12.048 17.957l4.006-4.013-4.006-4.014a.718.718 0 0 1 0-1.012.718.718 0 0 1 1.012 0l4.566 4.566a.653.653 0 0 1 0 .919l-4.566 4.566a.718.718 0 0 1-1.012 0 .718.718 0 0 1 0-1.012z" class="cls-1" transform="translate(-.826 2.056)"/>
        <path id="Path_7005" d="M12.048 17.957l4.006-4.013-4.006-4.014a.718.718 0 0 1 0-1.012.718.718 0 0 1 1.012 0l4.566 4.566a.653.653 0 0 1 0 .919l-4.566 4.566a.718.718 0 0 1-1.012 0 .718.718 0 0 1 0-1.012z" class="cls-1" transform="translate(4.174 2.056)"/>
    </g>
</svg>
