<svg xmlns="http://www.w3.org/2000/svg" width="25.452" height="15.662" viewBox="0 0 25.452 15.662">
    <defs>
        <style>
            .cls-1{fill:#06131e}
        </style>
    </defs>
    <g id="iconfinder_icon-email_211660" transform="translate(-48 -128)">
        <path id="Path_6141" d="M54.418 129.266c.673.355 10.021 5.451 10.37 5.635a3.057 3.057 0 0 0 2.508 0c.349-.184 9.7-5.28 10.37-5.635.251-.128.673-.361.765-.624.159-.465-.012-.642-.691-.642h-23.4c-.679 0-.85.184-.691.642.096.27.518.496.769.624z" class="cls-1" transform="translate(-5.256)"/>
        <path id="Path_6142" d="M72.944 151.572c-.5.257-5 3.463-7.984 5.39l5.029 5.659c.122.122.177.269.11.343s-.232.031-.361-.086l-6.032-5.09c-.912.587-1.554.991-1.664 1.052a3.056 3.056 0 0 1-2.508 0c-.116-.061-.753-.465-1.664-1.052l-6.032 5.09c-.122.122-.288.159-.361.086s-.018-.22.1-.343l5.023-5.659c-2.98-1.927-7.531-5.133-8.033-5.39-.538-.275-.569.049-.569.3v12.542a1.652 1.652 0 0 0 1.438 1.279h22.7a1.519 1.519 0 0 0 1.315-1.279v-12.543c0-.256.037-.571-.507-.299z" class="cls-1" transform="translate(0 -22.03)"/>
    </g>
</svg>
