<svg xmlns="http://www.w3.org/2000/svg" width="25.195" height="22.786" viewBox="0 0 25.195 22.786">
    <g transform="translate(-371.805 -126)">
        <g>
            <path d="M17.587-1.332H2.8A2.806 2.806 0 0 0 0 1.471v9.047a2.806 2.806 0 0 0 2.793 2.8v4.105l5.9-4.105h8.893a2.806 2.806 0 0 0 2.8-2.8V1.471a2.806 2.806 0 0 0-2.799-2.803zm1.613 11.85a1.61 1.61 0 0 1-1.609 1.609H8.318l-4.33 3.013v-3.013H2.8a1.61 1.61 0 0 1-1.609-1.609V1.471A1.61 1.61 0 0 1 2.8-.137h14.787A1.61 1.61 0 0 1 19.2 1.471zm0 0" transform="translate(371.805 131.359)"/>
            <path d="M171.293 131.172h9.475v1.195h-9.475zm0 0" transform="translate(371.805 131.359) translate(-165.836 -128.282)"/>
            <path d="M171.293 211.172h9.475v1.195h-9.475zm0 0" transform="translate(371.805 131.359) translate(-165.836 -205.734)"/>
            <path d="M171.293 291.172h9.475v1.195h-9.475zm0 0" transform="translate(371.805 131.359) translate(-165.836 -283.185)"/>
        </g>
        <circle cx="6" cy="6" r="6" fill="#3092fb" transform="translate(385 126)"/>
    </g>
</svg>
