<svg xmlns="http://www.w3.org/2000/svg" width="17.118" height="21.782" viewBox="0 0 17.118 21.782">
    <defs>
        <style>
            .cls-1{fill:#6ca7fa}
        </style>
    </defs>
    <g id="_2739715" transform="translate(-79.997 479.919)">
        <path id="Path_7056" d="M84.087-479.845a2.388 2.388 0 0 0-1.721 1.911l-.053.326-.326.053a2.376 2.376 0 0 0-1.916 1.741c-.063.253-.073 1.225-.073 7.951 0 8.35-.015 7.907.272 8.471a2.645 2.645 0 0 0 .939.958c.584.311.321.3 6.181.3 4.63 0 5.369-.01 5.617-.073a2.376 2.376 0 0 0 1.741-1.916l.053-.326.326-.053a2.376 2.376 0 0 0 1.916-1.741c.063-.253.073-1.046.073-6.152 0-6.317.01-6.122-.248-6.628-.185-.36-2.782-3.988-3.039-4.24a2.5 2.5 0 0 0-1.128-.6c-.175-.039-1.532-.053-4.3-.049a38.728 38.728 0 0 0-4.314.067zm7.581 2.782c0 1.41.029 1.629.272 2.111a2.645 2.645 0 0 0 .939.958 3.12 3.12 0 0 0 1.765.3h.914l-.01 5.588c-.015 5.558-.015 5.592-.117 5.724a1.324 1.324 0 0 1-.233.233c-.131.1-.156.1-5.476.1s-5.344 0-5.476-.1a1.324 1.324 0 0 1-.233-.233c-.1-.131-.1-.146-.117-7.679 0-4.153 0-7.615.015-7.7a.841.841 0 0 1 .438-.53 32.675 32.675 0 0 1 3.735-.068h3.584zm2.373.691l.778 1.094-.418.015c-.54.019-.7-.015-.89-.17-.253-.214-.287-.36-.287-1.259 0-.447.01-.8.019-.793s.376.514.799 1.112zm-11.71 7.09c0 7.426-.015 7.012.3 7.6a2.645 2.645 0 0 0 .958.939c.549.277.423.272 5.228.272h4.425l-.034.156a.788.788 0 0 1-.34.5c-.131.1-.156.1-5.476.1s-5.344 0-5.476-.1a1.325 1.325 0 0 1-.233-.233c-.1-.131-.1-.146-.117-7.679 0-4.153 0-7.615.015-7.7a.831.831 0 0 1 .671-.6c.075-.005.08.35.08 6.745z" class="cls-1"/>
        <path id="Path_7057" d="M211.2-335.631a.825.825 0 0 0-.408.433 5.735 5.735 0 0 0-.053.982v.846l-.919.015c-1.007.015-1.05.029-1.289.35a.88.88 0 0 0 0 .836c.238.321.282.336 1.284.35l.919.015.015.919c.015 1 .029 1.046.35 1.284a.88.88 0 0 0 .836 0c.321-.238.336-.282.35-1.284l.015-.919.919-.015c1-.015 1.046-.029 1.284-.35a.88.88 0 0 0 0-.836c-.238-.321-.282-.336-1.284-.35l-.919-.015-.015-.919c-.015-1-.029-1.046-.34-1.279a.9.9 0 0 0-.745-.063z" class="cls-1" transform="translate(-122.182 -137.22)"/>
    </g>
</svg>
