<svg xmlns="http://www.w3.org/2000/svg" width="28" height="28" viewBox="0 0 28 28">
    <rect width="28" height="28" fill="#f9f9f9" rx="4"/>
    <path fill="#06131e" d="M72.664 17.327a.144.144 0 0 0-.163-.163 1.483 1.483 0 0 1-1.471-1.471.163.163 0 1 0-.327 0 1.8 1.8 0 0 0 1.8 1.8.144.144 0 0 0 .161-.166zM81 14.385a1.326 1.326 0 0 1-1.308 1.308h-4.577a2.615 2.615 0 0 1-5.231 0h-4.576A1.326 1.326 0 0 1 64 14.385a8.974 8.974 0 0 0 .93-.9 8.1 8.1 0 0 0 .868-1.221 9.178 9.178 0 0 0 .761-1.619 11.922 11.922 0 0 0 .511-2.1 16.712 16.712 0 0 0 .2-2.656A4.248 4.248 0 0 1 68.465 3 5.051 5.051 0 0 1 71.6 1.379a1.017 1.017 0 0 1-.082-.4.946.946 0 0 1 .286-.695.987.987 0 0 1 1.389 0 .946.946 0 0 1 .286.695 1.017 1.017 0 0 1-.082.4A5.051 5.051 0 0 1 76.536 3a4.248 4.248 0 0 1 1.2 2.886 16.712 16.712 0 0 0 .2 2.656 11.921 11.921 0 0 0 .511 2.1 9.178 9.178 0 0 0 .761 1.619 8.1 8.1 0 0 0 .868 1.221 8.974 8.974 0 0 0 .924.903z" transform="translate(-58.79 4.972)"/>
</svg>
