<svg xmlns="http://www.w3.org/2000/svg" width="15" height="9" viewBox="0 0 15 9">
    <g fill="#00b952">
        <path d="M12.865 8.5H2.135c-.295 0-.421-.22-.453-.288-.031-.067-.12-.305.069-.532l5.365-6.438c.13-.157.297-.18.384-.18.087 0 .254.023.384.18L13.25 7.68c.189.227.1.465.069.532-.032.068-.158.288-.453.288z" transform="rotate(180 7.5 4.5)"/>
        <path fill="#fff" d="M7.5 1.562L2.135 8h10.73L7.502 1.562H7.5m0-1c.284 0 .568.12.768.36l5.365 6.438c.543.651.08 1.64-.768 1.64H2.135c-.848 0-1.31-.989-.768-1.64L6.732.922c.2-.24.484-.36.768-.36z" transform="rotate(180 7.5 4.5)"/>
    </g>
</svg>
