<svg xmlns="http://www.w3.org/2000/svg" width="36" height="36" viewBox="0 0 36 36">
    <defs>
        <style>
            .cls-2{fill:#e7e7e7}.cls-5{fill:#fff}.cls-6{fill:#05863f}
        </style>
    </defs>
    <g id="Group_7668" transform="translate(-156 -121)">
        <circle id="Ellipse_60" cx="18" cy="18" r="18" fill="#0e82fb" opacity="0.1" transform="translate(156 121)"/>
        <g id="_2922506" transform="translate(89.979 130.844)">
            <path id="Path_6245" d="M96.691 22.43v1.359a.277.277 0 0 1-.277.277h-10.1a.277.277 0 0 1-.277-.277V22.43a2.581 2.581 0 0 1 2.581-2.581 1.433 1.433 0 0 0 1.2-.653 1.627 1.627 0 0 0 .23-1.014l.005-.013A3.426 3.426 0 0 1 87.935 15v-.1a.854.854 0 0 1-.865-.849v-1.443a4.79 4.79 0 0 1 1.287-3.5c1.483-1.43 3.834-1.313 5.536-.548a.069.069 0 0 1 0 .127l-.444.183a.069.069 0 0 0 .019.133l.216.023a3.493 3.493 0 0 1 2.586 1.6.074.074 0 0 1-.009.085 2.094 2.094 0 0 0-.572 1.438v1.888a.849.849 0 0 1-.849.849h-.051V15a3.426 3.426 0 0 1-2.116 3.166l.005.013a1.626 1.626 0 0 0 .23 1.014 1.433 1.433 0 0 0 1.2.653 2.581 2.581 0 0 1 2.583 2.584z" class="cls-2" transform="translate(-7.722 -7.73)"/>
            <path id="Path_6246" fill="#00ba53" d="M96.691 334.606v1.359a.277.277 0 0 1-.277.277h-10.1a.277.277 0 0 1-.277-.277v-1.359a2.581 2.581 0 0 1 2.581-2.581 1.433 1.433 0 0 0 1.2-.653 2.375 2.375 0 0 0 3.09 0 1.433 1.433 0 0 0 1.2.653 2.581 2.581 0 0 1 2.583 2.581z" transform="translate(-7.722 -319.906)"/>
            <path id="Path_6247" fill="#42434d" d="M125.189 10.635a.073.073 0 0 1-.009.085 2.1 2.1 0 0 0-.572 1.438v1.888a.851.851 0 0 1-.9.849v-2.137a1.661 1.661 0 0 0-1.661-1.661h-3.53a1.661 1.661 0 0 0-1.661 1.661V14.9a.854.854 0 0 1-.865-.849v-1.442a4.79 4.79 0 0 1 1.287-3.5c1.483-1.43 3.834-1.313 5.536-.548a.069.069 0 0 1 0 .127l-.444.183a.069.069 0 0 0 .019.133l.216.023a3.491 3.491 0 0 1 2.584 1.608z" transform="translate(-36.644 -7.73)"/>
            <path id="Path_6248" d="M147.884 101.2a3.427 3.427 0 1 1-6.852-.108v-2.138a1.661 1.661 0 0 1 1.661-1.661h3.53a1.661 1.661 0 0 1 1.661 1.661z" class="cls-5" transform="translate(-60.819 -93.926)"/>
            <path id="Path_6249" d="M143.682 118.523a.547.547 0 0 1-.5.969 3.427 3.427 0 0 1-2.153-3.181v-2.246a1.654 1.654 0 0 1 .291-.94.409.409 0 0 1 .747.248v2.246a3.4 3.4 0 0 0 1.615 2.904z" class="cls-2" transform="translate(-60.819 -109.037)"/>
            <path id="Path_6250" d="M203.61 302.274a3.435 3.435 0 0 1-2.708 0 2.146 2.146 0 0 0 .039-.568l.005-.013a3.433 3.433 0 0 0 2.62 0l.005.013a2.145 2.145 0 0 0 .039.568z" class="cls-5" transform="translate(-118.617 -291.253)"/>
            <path id="Path_6251" d="M90.007 332.862a1.406 1.406 0 0 1-.412.064A2.588 2.588 0 0 0 87 335.5v.26a.485.485 0 0 1-.484.485h-.208a.277.277 0 0 1-.277-.277v-1.359a2.581 2.581 0 0 1 2.581-2.581 1.433 1.433 0 0 0 1.2-.653 2.4 2.4 0 0 0 .329.236.691.691 0 0 1-.138 1.253z" class="cls-6" transform="translate(-7.721 -319.906)"/>
            <path id="Path_6252" d="M265.841 332.862a1.406 1.406 0 0 0 .412.064 2.588 2.588 0 0 1 2.594 2.572v.26a.485.485 0 0 0 .484.485h.208a.277.277 0 0 0 .277-.277v-1.359a2.581 2.581 0 0 0-2.581-2.581 1.433 1.433 0 0 1-1.2-.653 2.394 2.394 0 0 1-.329.236.691.691 0 0 0 .138 1.253z" class="cls-6" transform="translate(-180.848 -319.906)"/>
            <path id="Path_6253" fill="#4d4e59" d="M122.814 8.691c-.407.167-.465.2-.606.183-2.273-.352-4.267.588-4.944 2.8a1.653 1.653 0 0 0-.406 1.088v1.3a.433.433 0 1 1-.865-.01v-1.444a4.79 4.79 0 0 1 1.287-3.5c1.483-1.43 3.834-1.313 5.536-.548a.069.069 0 0 1-.002.131z" transform="translate(-36.645 -7.73)"/>
            <path id="Path_6254" fill="#426572" d="M89.245 14.7v1.635a.277.277 0 1 1-.554 0V14.7a2.3 2.3 0 0 0-2.3-2.3 1.7 1.7 0 0 1-1.462-.821.277.277 0 1 1 .473-.288 1.15 1.15 0 0 0 .99.555 2.856 2.856 0 0 1 2.853 2.854zm-4.831-2.775a.277.277 0 0 1-.212.329 2.65 2.65 0 0 1-2.06-.4 1.679 1.679 0 0 1-1.252.545 2.3 2.3 0 0 0-2.3 2.3v1.635a.277.277 0 1 1-.554 0V14.7a2.856 2.856 0 0 1 2.857-2.857 1.154 1.154 0 0 0 1.157-1.154v-.073a3.709 3.709 0 0 1-2.108-3.206 1.13 1.13 0 0 1-.868-1.094V4.881a5.071 5.071 0 0 1 1.372-3.7C82.03-.346 84.57-.249 86.438.65a.277.277 0 0 1 .059.461 3.737 3.737 0 0 1 2.287 1.645.306.306 0 0 1 .064.218.28.28 0 0 1-.079.176 1.808 1.808 0 0 0-.523 1.277v1.889a.277.277 0 1 1-.554 0V4.428a2.356 2.356 0 0 1 .538-1.5 3.2 3.2 0 0 0-2.3-1.348l-.487-.052a.277.277 0 0 1-.076-.531L85.589.9c-2.882-1-5.964.112-5.964 3.977v1.439a.572.572 0 0 0 .311.506V5.028a1.94 1.94 0 0 1 1.938-1.938H85.4a1.94 1.94 0 0 1 1.938 1.938v2.267a3.708 3.708 0 0 1-4.738 3.531 1.693 1.693 0 0 1-.145.565 2.1 2.1 0 0 0 1.634.322.277.277 0 0 1 .325.213zm-.775-1.5a3.153 3.153 0 0 0 3.149-3.149V5.028A1.386 1.386 0 0 0 85.4 3.644h-3.53a1.386 1.386 0 0 0-1.38 1.384v2.246a3.153 3.153 0 0 0 3.149 3.149zm2.8 4.771h-.831a.277.277 0 0 0 0 .554h.831a.277.277 0 1 0 0-.554z"/>
        </g>
    </g>
</svg>
