<svg xmlns="http://www.w3.org/2000/svg" width="28.944" height="508.944" viewBox="0 0 28.944 508.944">
    <defs>
        <clipPath id="clip-path">
            <path d="M0 0H28.944V508.944H0z" class="cls-1"/>
        </clipPath>
        <style>
            .cls-1{fill:none}.cls-3{fill:#bebfc3}
        </style>
    </defs>
    <g id="Repeat_Grid_9" clip-path="url(#clip-path)">
        <g transform="translate(-1809.528 -468)">
            <g id="iconfinder_ic_low_priority_48px_3669334_2_" transform="translate(1809.528 468)">
                <path id="Path_6168" d="M18.472 10h9.648v2.412h-9.648zm0 6.633h9.648v2.412h-9.648zm0 6.633h9.648v2.412h-9.648zM4 17.839a7.847 7.847 0 0 0 7.839 7.839h.6v2.412l3.618-3.618-3.618-3.618v2.412h-.6a5.427 5.427 0 0 1 0-10.854h4.221V10h-4.221A7.847 7.847 0 0 0 4 17.839z" class="cls-3" transform="translate(-1.588 -3.97)"/>
                <path id="Path_6169" d="M0 0h28.944v28.944H0z" class="cls-1"/>
            </g>
        </g>
        <g transform="translate(-1809.528 -402)">
            <g id="iconfinder_ic_low_priority_48px_3669334_2_2" transform="translate(1809.528 468)">
                <path id="Path_6168-2" d="M18.472 10h9.648v2.412h-9.648zm0 6.633h9.648v2.412h-9.648zm0 6.633h9.648v2.412h-9.648zM4 17.839a7.847 7.847 0 0 0 7.839 7.839h.6v2.412l3.618-3.618-3.618-3.618v2.412h-.6a5.427 5.427 0 0 1 0-10.854h4.221V10h-4.221A7.847 7.847 0 0 0 4 17.839z" class="cls-3" transform="translate(-1.588 -3.97)"/>
                <path id="Path_6169-2" d="M0 0h28.944v28.944H0z" class="cls-1"/>
            </g>
        </g>
        <g transform="translate(-1809.528 -336)">
            <g id="iconfinder_ic_low_priority_48px_3669334_2_3" transform="translate(1809.528 468)">
                <path id="Path_6168-3" d="M18.472 10h9.648v2.412h-9.648zm0 6.633h9.648v2.412h-9.648zm0 6.633h9.648v2.412h-9.648zM4 17.839a7.847 7.847 0 0 0 7.839 7.839h.6v2.412l3.618-3.618-3.618-3.618v2.412h-.6a5.427 5.427 0 0 1 0-10.854h4.221V10h-4.221A7.847 7.847 0 0 0 4 17.839z" class="cls-3" transform="translate(-1.588 -3.97)"/>
                <path id="Path_6169-3" d="M0 0h28.944v28.944H0z" class="cls-1"/>
            </g>
        </g>
        <g transform="translate(-1809.528 -270)">
            <g id="iconfinder_ic_low_priority_48px_3669334_2_4" transform="translate(1809.528 468)">
                <path id="Path_6168-4" d="M18.472 10h9.648v2.412h-9.648zm0 6.633h9.648v2.412h-9.648zm0 6.633h9.648v2.412h-9.648zM4 17.839a7.847 7.847 0 0 0 7.839 7.839h.6v2.412l3.618-3.618-3.618-3.618v2.412h-.6a5.427 5.427 0 0 1 0-10.854h4.221V10h-4.221A7.847 7.847 0 0 0 4 17.839z" class="cls-3" transform="translate(-1.588 -3.97)"/>
                <path id="Path_6169-4" d="M0 0h28.944v28.944H0z" class="cls-1"/>
            </g>
        </g>
        <g transform="translate(-1809.528 -204)">
            <g id="iconfinder_ic_low_priority_48px_3669334_2_5" transform="translate(1809.528 468)">
                <path id="Path_6168-5" d="M18.472 10h9.648v2.412h-9.648zm0 6.633h9.648v2.412h-9.648zm0 6.633h9.648v2.412h-9.648zM4 17.839a7.847 7.847 0 0 0 7.839 7.839h.6v2.412l3.618-3.618-3.618-3.618v2.412h-.6a5.427 5.427 0 0 1 0-10.854h4.221V10h-4.221A7.847 7.847 0 0 0 4 17.839z" class="cls-3" transform="translate(-1.588 -3.97)"/>
                <path id="Path_6169-5" d="M0 0h28.944v28.944H0z" class="cls-1"/>
            </g>
        </g>
        <g transform="translate(-1809.528 -138)">
            <g id="iconfinder_ic_low_priority_48px_3669334_2_6" transform="translate(1809.528 468)">
                <path id="Path_6168-6" d="M18.472 10h9.648v2.412h-9.648zm0 6.633h9.648v2.412h-9.648zm0 6.633h9.648v2.412h-9.648zM4 17.839a7.847 7.847 0 0 0 7.839 7.839h.6v2.412l3.618-3.618-3.618-3.618v2.412h-.6a5.427 5.427 0 0 1 0-10.854h4.221V10h-4.221A7.847 7.847 0 0 0 4 17.839z" class="cls-3" transform="translate(-1.588 -3.97)"/>
                <path id="Path_6169-6" d="M0 0h28.944v28.944H0z" class="cls-1"/>
            </g>
        </g>
        <g transform="translate(-1809.528 -72)">
            <g id="iconfinder_ic_low_priority_48px_3669334_2_7" transform="translate(1809.528 468)">
                <path id="Path_6168-7" d="M18.472 10h9.648v2.412h-9.648zm0 6.633h9.648v2.412h-9.648zm0 6.633h9.648v2.412h-9.648zM4 17.839a7.847 7.847 0 0 0 7.839 7.839h.6v2.412l3.618-3.618-3.618-3.618v2.412h-.6a5.427 5.427 0 0 1 0-10.854h4.221V10h-4.221A7.847 7.847 0 0 0 4 17.839z" class="cls-3" transform="translate(-1.588 -3.97)"/>
                <path id="Path_6169-7" d="M0 0h28.944v28.944H0z" class="cls-1"/>
            </g>
        </g>
        <g transform="translate(-1809.528 -6)">
            <g id="iconfinder_ic_low_priority_48px_3669334_2_8" transform="translate(1809.528 468)">
                <path id="Path_6168-8" d="M18.472 10h9.648v2.412h-9.648zm0 6.633h9.648v2.412h-9.648zm0 6.633h9.648v2.412h-9.648zM4 17.839a7.847 7.847 0 0 0 7.839 7.839h.6v2.412l3.618-3.618-3.618-3.618v2.412h-.6a5.427 5.427 0 0 1 0-10.854h4.221V10h-4.221A7.847 7.847 0 0 0 4 17.839z" class="cls-3" transform="translate(-1.588 -3.97)"/>
                <path id="Path_6169-8" d="M0 0h28.944v28.944H0z" class="cls-1"/>
            </g>
        </g>
    </g>
</svg>
