<svg xmlns="http://www.w3.org/2000/svg" width="22.361" height="26.051" viewBox="0 0 22.361 26.051">
  <g id="Repository" transform="translate(-2018 -1592)">
    <g id="download" transform="translate(2018 1592)">
      <path id="Path_3" data-name="Path 3" d="M32.91-215.814a1.747,1.747,0,0,0-.661.586c-.249.4-.249.6-.249,11.006s0,10.607.249,11.006a1.827,1.827,0,0,0,1.5.773c.361,0,.374-.025.374-.561s-.012-.561-.361-.561c-.623,0-.76-.349-.76-1.957v-1.408H53.363v1.408c0,1.072-.05,1.471-.2,1.683l-.187.274H42.1v1.122h4.3c4.774,0,7.254-.025,7.715-.773.249-.4.249-.6.249-11.006s0-10.607-.249-11.006c-.486-.8-2.517-.773-12.1-.773C34.817-215.988,33.234-215.963,32.91-215.814Zm5.2,4.3v1.122H35.864v-2.244h2.244Zm0,5.048v1.184H35.864v-2.368h2.244Zm0,5.048v1.122H35.864v-2.244h2.244Z" transform="translate(-32 216.001)" fill="#90949c"/>
      <path id="Path_4" data-name="Path 4" d="M59-51.071c0,1.608.025,2.929.062,2.929s.648-.3,1.371-.648l1.309-.661,1.309.661c.723.349,1.334.648,1.371.648s.062-1.321.062-2.929V-54H59Z" transform="translate(-55.635 74.193)" fill="#90949c"/>
    </g>
  </g>
</svg>
