<svg xmlns="http://www.w3.org/2000/svg" width="22.077" height="19.314" viewBox="0 0 22.077 19.314">
    <path fill="#6ca7fa" d="M19.254 14.007h2.478a.345.345 0 1 0 0-.69h-2.478a1.031 1.031 0 0 0-.626-.626v-2.479h1.035a.345.345 0 0 0 0-.69h-.1l-.115-.346h.9a1.036 1.036 0 0 0 1.035-1.035V5.04A1.036 1.036 0 0 0 20.35 4h-4.134a1.036 1.036 0 0 0-1.035 1.04v3.1a1.036 1.036 0 0 0 1.035 1.035h.9L17 9.523h-.1a.345.345 0 0 0 0 .69h1.034v2.479a1.031 1.031 0 0 0-.626.626h-2.13v-2.762a.345.345 0 0 0-.345-.345h-4.818l-.021-.084a.345.345 0 0 0-.335-.261H7.243a.345.345 0 0 0-.345.345v3.106H4.766a1.031 1.031 0 0 0-.626-.626v-2.479h1.034a.345.345 0 0 0 0-.69h-.1l-.115-.346h.9A1.036 1.036 0 0 0 6.9 8.142V5.04A1.036 1.036 0 0 0 5.861 4H1.728A1.036 1.036 0 0 0 .693 5.04v3.1a1.036 1.036 0 0 0 1.035 1.037h.9l-.115.346h-.1a.345.345 0 0 0 0 .69H3.45v2.479a1.029 1.029 0 0 0-.626.626H.345a.345.345 0 0 0 0 .69h2.478a1.031 1.031 0 0 0 .626.626v2.479H1.728a1.036 1.036 0 0 0-1.035 1.033v3.1a1.036 1.036 0 0 0 1.035 1.035h.9l-.115.346h-.1a.345.345 0 0 0 0 .69h2.761a.345.345 0 0 0 0-.69h-.1l-.115-.346h.9A1.036 1.036 0 0 0 6.9 21.249v-3.1a1.036 1.036 0 0 0-1.035-1.035H4.139v-2.481a1.031 1.031 0 0 0 .626-.626H6.9v2.415a.345.345 0 0 0 .345.345h7.588a.345.345 0 0 0 .345-.345v-2.415h2.134a1.031 1.031 0 0 0 .626.626v2.479h-1.722a1.036 1.036 0 0 0-1.035 1.035v3.1a1.036 1.036 0 0 0 1.035 1.035h.9l-.116.347h-.1a.345.345 0 0 0 0 .69h2.759a.345.345 0 1 0 0-.69h-.1l-.115-.346h.9a1.036 1.036 0 0 0 1.035-1.035v-3.1a1.036 1.036 0 0 0-1.035-1.035h-1.716v-2.48a1.029 1.029 0 0 0 .626-.626zm-3.038-9.312h4.134a.345.345 0 0 1 .345.345v2.412h-4.824V5.04a.345.345 0 0 1 .345-.345zm-.345 3.447h4.823a.345.345 0 0 1-.345.345h-4.133a.345.345 0 0 1-.345-.345zm1.971 1.035h.881l.115.346h-1.111zM1.728 4.695h4.133a.345.345 0 0 1 .345.345v2.412H1.383V5.04a.345.345 0 0 1 .345-.345zm-.345 3.447h4.823a.345.345 0 0 1-.345.345H1.728a.345.345 0 0 1-.345-.345zm1.971 1.035h.881l.115.346H3.238zm1 13.452H3.238l.116-.346h.881zm1.511-1.036H1.728a.345.345 0 0 1-.345-.345h4.823a.345.345 0 0 1-.345.346zm.345-3.447v2.413H1.383v-2.413a.345.345 0 0 1 .345-.345h4.133a.345.345 0 0 1 .345.345zM3.8 14.007a.345.345 0 0 1 0-.689.345.345 0 0 1 0 .689zM14.489 10.9v.346h-4.215l-.087-.346zm0 5.175H7.59v-5.519h1.8l.28 1.12a.345.345 0 0 0 .335.261h4.483zm4.351 6.552h-1.113l.116-.346h.881zm1.51-1.036h-4.134a.345.345 0 0 1-.345-.345h4.823a.345.345 0 0 1-.344.348zm.345-3.447v2.413h-4.824v-2.411a.345.345 0 0 1 .345-.345h4.134a.345.345 0 0 1 .345.345zm-2.414-4.829h.006a.345.345 0 0 1 0 .689.345.345 0 0 1 0-.689z" transform="translate(0 -4.005)"/>
</svg>
