<svg xmlns="http://www.w3.org/2000/svg" width="12.411" height="12.278" viewBox="0 0 12.411 12.278">
    <path fill="#00b952" d="M73.7 134.318a3.526 3.526 0 1 0-1.033 2.485 3.388 3.388 0 0 0 1.033-2.485zm3.364 5.744a1.019 1.019 0 0 1-1.005 1.005.933.933 0 0 1-.707-.3l-2.037-1.9a5.377 5.377 0 0 1-3.133.974 5.432 5.432 0 0 1-2.148-.436 5.414 5.414 0 0 1-2.945-2.945 5.51 5.51 0 0 1 0-4.3 5.414 5.414 0 0 1 2.945-2.945 5.51 5.51 0 0 1 4.3 0 5.414 5.414 0 0 1 2.945 2.945 5.432 5.432 0 0 1 .436 2.148 5.378 5.378 0 0 1-.974 3.133l2.037 1.9a.962.962 0 0 1 .289.721z" transform="translate(-64.657 -128.789)"/>
</svg>
