<svg xmlns="http://www.w3.org/2000/svg" width="20.275" height="20.272" viewBox="0 0 20.275 20.272">
    <defs>
        <style>
            .cls-1{fill:#6ca7fa}
        </style>
    </defs>
    <g id="_2356572" transform="translate(-.5 511.927)">
        <path id="Path_7064" d="M2.244-511.89a2.22 2.22 0 0 0-1.653 1.459l-.091.266v16.765l.091.262a2.23 2.23 0 0 0 1.387 1.391l.266.091h11.931l.266-.091a2.248 2.248 0 0 0 1.387-1.379c.087-.226.087-.289.1-1.962l.012-1.728.2-.1a4.03 4.03 0 0 0 .424-.242l.222-.147 1.526 1.518c.84.836 1.566 1.542 1.613 1.566a.715.715 0 0 0 .527-.016.606.606 0 0 0 .3-.4c.055-.309.059-.305-1.578-1.95l-1.55-1.55.186-.3a4.019 4.019 0 0 0 .618-2.208 3.949 3.949 0 0 0-1.126-2.846 3.7 3.7 0 0 0-1.07-.824l-.3-.155v-1.518a6.27 6.27 0 0 0-.063-1.645c-.087-.174-4.043-4.138-4.225-4.233-.143-.071-.274-.075-4.7-.071-2.492.015-4.613.031-4.7.047zm8.542 2.89c0 1.673 0 1.752.079 1.9a.531.531 0 0 0 .238.238c.151.075.23.079 1.9.079h1.747v2l-.361-.016a4.144 4.144 0 0 0-2.041.488 4.255 4.255 0 0 0-1.942 2.2 3.586 3.586 0 0 0-.242 1.629 3.143 3.143 0 0 0 .123.967 4.014 4.014 0 0 0 1.122 1.851 3.974 3.974 0 0 0 1.855 1.054 3.083 3.083 0 0 0 .939.111h.547v1.411c0 1.605-.012 1.673-.3 1.958-.317.321.155.3-6.243.3s-5.926.024-6.243-.3-.3.444-.3-8.661-.028-8.34.3-8.661c.305-.309.02-.289 4.669-.293h4.15zm2.16.079l.951.951h-1.922v-.951c0-.523 0-.951.012-.951s.436.432.959.955zm1.9 5.367a2.883 2.883 0 0 1 1.534.817 2.956 2.956 0 0 1 .737 1.169 2.1 2.1 0 0 1 .111.932 2.1 2.1 0 0 1-.111.931 2.955 2.955 0 0 1-.737 1.169 2.915 2.915 0 0 1-2.636.817 2.883 2.883 0 0 1-1.534-.817 2.955 2.955 0 0 1-.737-1.169 2.1 2.1 0 0 1-.111-.931 2.1 2.1 0 0 1 .111-.932 2.975 2.975 0 0 1 3.372-1.982z" class="cls-1"/>
        <path id="Path_7065" d="M60.309-351.917a.635.635 0 0 0-.309.511.626.626 0 0 0 .317.515c.151.079.226.079 3.647.079s3.5 0 3.647-.079a.626.626 0 0 0 .317-.515.626.626 0 0 0-.317-.515c-.151-.079-.226-.079-3.655-.079-3.405 0-3.504 0-3.647.083z" class="cls-1" transform="translate(-57.142 -153.587)"/>
        <path id="Path_7066" d="M60.309-291.917a.635.635 0 0 0-.309.511.626.626 0 0 0 .317.515c.151.075.226.079 2.854.079s2.7 0 2.854-.079a.626.626 0 0 0 .317-.515.626.626 0 0 0-.317-.515C65.874-292 65.8-292 63.163-292c-2.616 0-2.711.008-2.854.083z" class="cls-1" transform="translate(-57.142 -211.209)"/>
        <path id="Path_7067" d="M60.309-231.917a.635.635 0 0 0-.309.511.626.626 0 0 0 .317.515c.151.075.226.079 2.854.079s2.7 0 2.854-.079a.626.626 0 0 0 .317-.515.626.626 0 0 0-.317-.515C65.874-232 65.8-232 63.163-232c-2.616 0-2.711.008-2.854.083z" class="cls-1" transform="translate(-57.142 -268.831)"/>
        <path id="Path_7068" d="M60.309-171.917a.635.635 0 0 0-.309.511.626.626 0 0 0 .317.515c.151.075.226.079 2.854.079s2.7 0 2.854-.079a.626.626 0 0 0 .317-.515.626.626 0 0 0-.317-.515C65.874-172 65.8-172 63.163-172c-2.616 0-2.711.008-2.854.083z" class="cls-1" transform="translate(-57.142 -326.452)"/>
    </g>
</svg>
