<svg xmlns="http://www.w3.org/2000/svg" width="18.887" height="20.297" viewBox="0 0 18.887 20.297">
    <path fill="#06131e" d="M20.771 13.624l-.381-.22a1.45 1.45 0 0 1 0-2.511l.381-.22a2.174 2.174 0 0 0 .8-2.971l-.725-1.255a2.177 2.177 0 0 0-2.971-.8l-.381.22a1.45 1.45 0 0 1-2.175-1.255v-.44A2.177 2.177 0 0 0 13.141 2h-1.45a2.177 2.177 0 0 0-2.175 2.175v.441a1.45 1.45 0 0 1-2.174 1.255L6.96 5.65a2.178 2.178 0 0 0-2.971.8L3.264 7.7a2.173 2.173 0 0 0 .8 2.971l.382.22a1.45 1.45 0 0 1 0 2.511l-.381.22a2.173 2.173 0 0 0-.8 2.971l.725 1.257a2.177 2.177 0 0 0 2.971.8l.381-.22a1.45 1.45 0 0 1 2.175 1.255v.44a2.177 2.177 0 0 0 2.174 2.175h1.45a2.177 2.177 0 0 0 2.175-2.175v-.441a1.45 1.45 0 0 1 2.175-1.255l.381.22a2.178 2.178 0 0 0 2.971-.8l.725-1.255a2.173 2.173 0 0 0-.797-2.97zm-8.355 2.149a3.624 3.624 0 1 1 3.624-3.624 3.629 3.629 0 0 1-3.624 3.624z" transform="translate(-2.972 -2)"/>
</svg>
