<svg xmlns="http://www.w3.org/2000/svg" xmlns:xlink="http://www.w3.org/1999/xlink" viewBox="0 0 623 346" width="623" height="346"><path d="M 67.000,167.469 C 67.500,172.469 67.413,172.479 68.000,177.469" stroke-width="5.417" stroke="black" fill="none" stroke-linecap="round"></path><path d="M 68.000,177.469 C 68.413,180.979 68.500,180.969 69.000,184.469" stroke-width="4.258" stroke="black" fill="none" stroke-linecap="round"></path><path d="M 69.000,184.469 C 69.500,187.969 68.904,188.180 70.000,191.469" stroke-width="4.102" stroke="black" fill="none" stroke-linecap="round"></path><path d="M 70.000,191.469 C 70.904,194.180 71.964,193.776 73.000,196.469" stroke-width="4.162" stroke="black" fill="none" stroke-linecap="round"></path><path d="M 73.000,196.469 C 74.464,200.276 74.000,200.469 75.000,204.469" stroke-width="4.393" stroke="black" fill="none" stroke-linecap="round"></path><path d="M 75.000,204.469 C 76.000,208.469 75.938,208.485 77.000,212.469" stroke-width="4.486" stroke="black" fill="none" stroke-linecap="round"></path><path d="M 77.000,212.469 C 77.938,215.985 78.183,215.928 79.000,219.469" stroke-width="4.571" stroke="black" fill="none" stroke-linecap="round"></path><path d="M 79.000,219.469 C 79.683,222.428 79.049,222.615 80.000,225.469" stroke-width="4.213" stroke="black" fill="none" stroke-linecap="round"></path><path d="M 80.000,225.469 C 81.049,228.615 81.864,228.344 83.000,231.469" stroke-width="4.716" stroke="black" fill="none" stroke-linecap="round"></path><path d="M 89.000,176.469 C 87.500,179.969 87.798,180.130 86.000,183.469" stroke-width="5.503" stroke="black" fill="none" stroke-linecap="round"></path><path d="M 86.000,183.469 C 84.298,186.630 83.717,186.320 82.000,189.469" stroke-width="4.870" stroke="black" fill="none" stroke-linecap="round"></path><path d="M 82.000,189.469 C 80.717,191.820 81.036,191.983 80.000,194.469" stroke-width="5.000" stroke="black" fill="none" stroke-linecap="round"></path><path d="M 80.000,194.469 C 78.536,197.983 78.464,197.954 77.000,201.469" stroke-width="4.916" stroke="black" fill="none" stroke-linecap="round"></path><path d="M 77.000,201.469 C 75.964,203.954 73.799,205.267 75.000,206.469" stroke-width="5.200" stroke="black" fill="none" stroke-linecap="round"></path><path d="M 75.000,206.469 C 76.799,208.267 78.988,207.160 83.000,207.469" stroke-width="5.444" stroke="black" fill="none" stroke-linecap="round"></path><path d="M 83.000,207.469 C 85.488,207.660 85.525,207.716 88.000,207.469" stroke-width="4.626" stroke="black" fill="none" stroke-linecap="round"></path><path d="M 88.000,207.469 C 90.525,207.216 90.867,205.758 93.000,206.469" stroke-width="4.945" stroke="black" fill="none" stroke-linecap="round"></path><path d="M 93.000,206.469 C 95.367,207.258 95.463,208.163 97.000,210.469" stroke-width="5.244" stroke="black" fill="none" stroke-linecap="round"></path><path d="M 97.000,210.469 C 98.463,212.663 98.150,212.918 99.000,215.469" stroke-width="4.966" stroke="black" fill="none" stroke-linecap="round"></path><path d="M 99.000,215.469 C 100.150,218.918 99.518,219.208 101.000,222.469" stroke-width="4.918" stroke="black" fill="none" stroke-linecap="round"></path><path d="M 101.000,222.469 C 102.018,224.708 102.500,224.469 104.000,226.469" stroke-width="5.139" stroke="black" fill="none" stroke-linecap="round"></path><path d="M 104.000,226.469 C 105.500,228.469 105.074,229.987 107.000,230.469" stroke-width="5.327" stroke="black" fill="none" stroke-linecap="round"></path><path d="M 107.000,230.469 C 109.074,230.987 112.593,229.259 112.000,228.469" stroke-width="5.385" stroke="black" fill="none" stroke-linecap="round"></path><circle r="1.5" cx="121" cy="216.46875" fill="black"></circle><path d="M 135.000,213.469 C 136.000,209.969 136.118,209.999 137.000,206.469" stroke-width="5.441" stroke="black" fill="none" stroke-linecap="round"></path><path d="M 137.000,206.469 C 138.118,201.999 138.096,201.988 139.000,197.469" stroke-width="4.665" stroke="black" fill="none" stroke-linecap="round"></path><path d="M 139.000,197.469 C 140.096,191.988 139.789,191.919 141.000,186.469" stroke-width="4.331" stroke="black" fill="none" stroke-linecap="round"></path><path d="M 141.000,186.469 C 141.789,182.919 142.407,183.026 143.000,179.469" stroke-width="4.504" stroke="black" fill="none" stroke-linecap="round"></path><path d="M 143.000,179.469 C 143.407,177.026 142.359,176.818 143.000,174.469" stroke-width="4.751" stroke="black" fill="none" stroke-linecap="round"></path><path d="M 143.000,174.469 C 143.859,171.318 145.208,171.636 146.000,168.469" stroke-width="4.714" stroke="black" fill="none" stroke-linecap="round"></path><path d="M 146.000,168.469 C 146.708,165.636 146.000,165.469 146.000,162.469" stroke-width="4.761" stroke="black" fill="none" stroke-linecap="round"></path><path d="M 146.000,162.469 C 146.000,158.469 146.000,158.469 146.000,154.469" stroke-width="4.595" stroke="black" fill="none" stroke-linecap="round"></path><path d="M 146.000,154.469 C 146.000,151.969 146.248,151.944 146.000,149.469" stroke-width="5.017" stroke="black" fill="none" stroke-linecap="round"></path><path d="M 146.000,149.469 C 145.748,146.944 146.459,146.171 145.000,144.469" stroke-width="5.177" stroke="black" fill="none" stroke-linecap="round"></path><path d="M 145.000,144.469 C 143.459,142.671 142.551,143.319 140.000,142.469" stroke-width="5.093" stroke="black" fill="none" stroke-linecap="round"></path><path d="M 140.000,142.469 C 136.551,141.319 136.541,141.286 133.000,140.469" stroke-width="4.796" stroke="black" fill="none" stroke-linecap="round"></path><path d="M 133.000,140.469 C 130.041,139.786 130.019,139.743 127.000,139.469" stroke-width="4.730" stroke="black" fill="none" stroke-linecap="round"></path><path d="M 127.000,139.469 C 124.519,139.243 123.708,138.188 122.000,139.469" stroke-width="4.837" stroke="black" fill="none" stroke-linecap="round"></path><path d="M 122.000,139.469 C 119.708,141.188 119.487,142.304 119.000,145.469" stroke-width="5.244" stroke="black" fill="none" stroke-linecap="round"></path><path d="M 119.000,145.469 C 118.487,148.804 118.828,149.247 120.000,152.469" stroke-width="4.818" stroke="black" fill="none" stroke-linecap="round"></path><path d="M 120.000,152.469 C 120.828,154.747 121.465,154.496 123.000,156.469" stroke-width="4.478" stroke="black" fill="none" stroke-linecap="round"></path><path d="M 123.000,156.469 C 124.965,158.996 125.229,158.813 127.000,161.469" stroke-width="4.243" stroke="black" fill="none" stroke-linecap="round"></path><path d="M 127.000,161.469 C 129.229,164.813 128.649,165.237 131.000,168.469" stroke-width="4.671" stroke="black" fill="none" stroke-linecap="round"></path><path d="M 131.000,168.469 C 132.649,170.737 132.877,170.611 135.000,172.469" stroke-width="4.346" stroke="black" fill="none" stroke-linecap="round"></path><path d="M 135.000,172.469 C 136.877,174.111 137.000,173.969 139.000,175.469" stroke-width="4.304" stroke="black" fill="none" stroke-linecap="round"></path><path d="M 139.000,175.469 C 141.000,176.969 140.865,177.188 143.000,178.469" stroke-width="4.291" stroke="black" fill="none" stroke-linecap="round"></path><path d="M 143.000,178.469 C 145.865,180.188 146.041,179.891 149.000,181.469" stroke-width="4.056" stroke="black" fill="none" stroke-linecap="round"></path><path d="M 149.000,181.469 C 153.541,183.891 153.684,183.694 158.000,186.469" stroke-width="4.215" stroke="black" fill="none" stroke-linecap="round"></path><path d="M 158.000,186.469 C 160.684,188.194 160.750,188.219 163.000,190.469" stroke-width="4.720" stroke="black" fill="none" stroke-linecap="round"></path><path d="M 163.000,190.469 C 165.250,192.719 165.168,192.852 167.000,195.469" stroke-width="4.903" stroke="black" fill="none" stroke-linecap="round"></path><path d="M 167.000,195.469 C 168.668,197.852 169.261,197.758 170.000,200.469" stroke-width="4.989" stroke="black" fill="none" stroke-linecap="round"></path><path d="M 170.000,200.469 C 170.761,203.258 170.000,203.469 170.000,206.469" stroke-width="5.177" stroke="black" fill="none" stroke-linecap="round"></path><path d="M 170.000,206.469 C 170.000,209.469 170.818,209.741 170.000,212.469" stroke-width="5.167" stroke="black" fill="none" stroke-linecap="round"></path><path d="M 170.000,212.469 C 169.318,214.741 168.980,215.231 167.000,216.469" stroke-width="5.221" stroke="black" fill="none" stroke-linecap="round"></path><path d="M 167.000,216.469 C 164.980,217.731 164.525,217.216 162.000,217.469" stroke-width="5.132" stroke="black" fill="none" stroke-linecap="round"></path><path d="M 162.000,217.469 C 159.525,217.716 159.500,217.469 157.000,217.469" stroke-width="4.957" stroke="black" fill="none" stroke-linecap="round"></path><path d="M 157.000,217.469 C 154.000,217.469 153.973,217.739 151.000,217.469" stroke-width="5.010" stroke="black" fill="none" stroke-linecap="round"></path><path d="M 151.000,217.469 C 148.473,217.239 148.333,217.402 146.000,216.469" stroke-width="4.898" stroke="black" fill="none" stroke-linecap="round"></path><path d="M 146.000,216.469 C 143.333,215.402 143.423,215.084 141.000,213.469" stroke-width="4.799" stroke="black" fill="none" stroke-linecap="round"></path><path d="M 141.000,213.469 C 138.923,212.084 138.756,212.225 137.000,210.469" stroke-width="4.845" stroke="black" fill="none" stroke-linecap="round"></path><path d="M 137.000,210.469 C 134.256,207.725 134.072,207.724 132.000,204.469" stroke-width="4.978" stroke="black" fill="none" stroke-linecap="round"></path><path d="M 132.000,204.469 C 130.572,202.224 131.000,201.969 130.000,199.469" stroke-width="5.124" stroke="black" fill="none" stroke-linecap="round"></path><path d="M 130.000,199.469 C 129.000,196.969 127.481,196.543 128.000,194.469" stroke-width="5.301" stroke="black" fill="none" stroke-linecap="round"></path><path d="M 128.000,194.469 C 128.481,192.543 129.750,192.219 132.000,191.469" stroke-width="5.169" stroke="black" fill="none" stroke-linecap="round"></path><path d="M 132.000,191.469 C 134.250,190.719 134.500,191.469 137.000,191.469" stroke-width="5.256" stroke="black" fill="none" stroke-linecap="round"></path><path d="M 137.000,191.469 C 139.500,191.469 139.750,190.719 142.000,191.469" stroke-width="4.991" stroke="black" fill="none" stroke-linecap="round"></path><path d="M 142.000,191.469 C 144.250,192.219 144.872,192.439 146.000,194.469" stroke-width="5.173" stroke="black" fill="none" stroke-linecap="round"></path><path d="M 146.000,194.469 C 147.372,196.939 146.726,197.450 147.000,200.469" stroke-width="5.162" stroke="black" fill="none" stroke-linecap="round"></path><path d="M 147.000,200.469 C 147.226,202.950 147.000,202.969 147.000,205.469" stroke-width="4.978" stroke="black" fill="none" stroke-linecap="round"></path><path d="M 147.000,205.469 C 147.000,208.469 147.176,208.477 147.000,211.469" stroke-width="4.823" stroke="black" fill="none" stroke-linecap="round"></path><path d="M 147.000,211.469 C 146.676,216.977 146.610,216.982 146.000,222.469" stroke-width="4.404" stroke="black" fill="none" stroke-linecap="round"></path><path d="M 146.000,222.469 C 145.610,225.982 145.293,225.954 145.000,229.469" stroke-width="4.561" stroke="black" fill="none" stroke-linecap="round"></path><circle r="1.5" cx="175" cy="184.46875" fill="black"></circle><path d="M 188.000,175.469 C 188.500,171.469 188.732,171.483 189.000,167.469" stroke-width="5.433" stroke="black" fill="none" stroke-linecap="round"></path><path d="M 189.000,167.469 C 189.232,163.983 189.000,163.969 189.000,160.469" stroke-width="4.272" stroke="black" fill="none" stroke-linecap="round"></path><path d="M 189.000,160.469 C 189.000,155.469 189.000,155.469 189.000,150.469" stroke-width="3.733" stroke="black" fill="none" stroke-linecap="round"></path><path d="M 189.000,150.469 C 189.000,146.469 189.000,146.469 189.000,142.469" stroke-width="3.797" stroke="black" fill="none" stroke-linecap="round"></path><path d="M 189.000,142.469 C 189.000,138.469 189.000,138.469 189.000,134.469" stroke-width="3.817" stroke="black" fill="none" stroke-linecap="round"></path><path d="M 189.000,134.469 C 189.000,130.969 189.232,130.954 189.000,127.469" stroke-width="3.884" stroke="black" fill="none" stroke-linecap="round"></path><path d="M 189.000,127.469 C 188.732,123.454 188.971,123.353 188.000,119.469" stroke-width="3.782" stroke="black" fill="none" stroke-linecap="round"></path><path d="M 188.000,119.469 C 186.971,115.353 186.892,115.254 185.000,111.469" stroke-width="3.755" stroke="black" fill="none" stroke-linecap="round"></path><path d="M 185.000,111.469 C 183.892,109.254 184.045,108.378 182.000,107.469" stroke-width="4.492" stroke="black" fill="none" stroke-linecap="round"></path><path d="M 182.000,107.469 C 179.545,106.378 178.455,106.378 176.000,107.469" stroke-width="4.997" stroke="black" fill="none" stroke-linecap="round"></path><path d="M 176.000,107.469 C 173.955,108.378 174.281,109.333 173.000,111.469" stroke-width="4.523" stroke="black" fill="none" stroke-linecap="round"></path><path d="M 173.000,111.469 C 171.281,114.333 171.746,114.612 170.000,117.469" stroke-width="4.217" stroke="black" fill="none" stroke-linecap="round"></path><path d="M 170.000,117.469 C 166.246,123.612 165.454,123.189 162.000,129.469" stroke-width="3.172" stroke="black" fill="none" stroke-linecap="round"></path><path d="M 162.000,129.469 C 159.954,133.189 160.272,133.398 159.000,137.469" stroke-width="3.503" stroke="black" fill="none" stroke-linecap="round"></path><path d="M 159.000,137.469 C 157.772,141.398 157.541,141.412 157.000,145.469" stroke-width="3.698" stroke="black" fill="none" stroke-linecap="round"></path><path d="M 157.000,145.469 C 156.541,148.912 157.000,148.969 157.000,152.469" stroke-width="3.937" stroke="black" fill="none" stroke-linecap="round"></path><path d="M 157.000,152.469 C 157.000,154.969 157.000,154.969 157.000,157.469" stroke-width="4.215" stroke="black" fill="none" stroke-linecap="round"></path><path d="M 157.000,157.469 C 157.000,160.969 156.234,161.150 157.000,164.469" stroke-width="4.504" stroke="black" fill="none" stroke-linecap="round"></path><path d="M 157.000,164.469 C 157.734,167.650 157.953,167.911 160.000,170.469" stroke-width="4.111" stroke="black" fill="none" stroke-linecap="round"></path><path d="M 160.000,170.469 C 161.953,172.911 162.161,173.436 165.000,174.469" stroke-width="4.687" stroke="black" fill="none" stroke-linecap="round"></path><path d="M 165.000,174.469 C 167.661,175.436 168.000,174.469 171.000,174.469" stroke-width="4.253" stroke="black" fill="none" stroke-linecap="round"></path><path d="M 171.000,174.469 C 173.500,174.469 173.500,174.469 176.000,174.469" stroke-width="4.276" stroke="black" fill="none" stroke-linecap="round"></path><path d="M 176.000,174.469 C 179.500,174.469 179.500,174.469 183.000,174.469" stroke-width="4.068" stroke="black" fill="none" stroke-linecap="round"></path><path d="M 183.000,174.469 C 186.500,174.469 186.958,175.575 190.000,174.469" stroke-width="4.638" stroke="black" fill="none" stroke-linecap="round"></path><path d="M 190.000,174.469 C 192.458,173.575 192.399,172.756 194.000,170.469" stroke-width="4.736" stroke="black" fill="none" stroke-linecap="round"></path><path d="M 194.000,170.469 C 195.899,167.756 195.101,167.181 197.000,164.469" stroke-width="4.693" stroke="black" fill="none" stroke-linecap="round"></path><path d="M 197.000,164.469 C 198.601,162.181 199.351,162.737 201.000,160.469" stroke-width="4.304" stroke="black" fill="none" stroke-linecap="round"></path><path d="M 201.000,160.469 C 203.351,157.237 202.531,156.555 205.000,153.469" stroke-width="4.453" stroke="black" fill="none" stroke-linecap="round"></path><path d="M 205.000,153.469 C 206.531,151.555 207.123,152.111 209.000,150.469" stroke-width="4.759" stroke="black" fill="none" stroke-linecap="round"></path><path d="M 209.000,150.469 C 211.123,148.611 211.124,146.234 213.000,146.469" stroke-width="4.954" stroke="black" fill="none" stroke-linecap="round"></path><path d="M 213.000,146.469 C 215.124,146.734 215.596,148.661 217.000,151.469" stroke-width="5.088" stroke="black" fill="none" stroke-linecap="round"></path><path d="M 217.000,151.469 C 218.596,154.661 218.081,154.947 219.000,158.469" stroke-width="4.225" stroke="black" fill="none" stroke-linecap="round"></path><path d="M 219.000,158.469 C 221.081,166.447 221.126,166.439 223.000,174.469" stroke-width="3.163" stroke="black" fill="none" stroke-linecap="round"></path><path d="M 223.000,174.469 C 224.626,181.439 224.824,181.414 226.000,188.469" stroke-width="3.085" stroke="black" fill="none" stroke-linecap="round"></path><path d="M 226.000,188.469 C 227.324,196.414 226.827,196.494 228.000,204.469" stroke-width="2.944" stroke="black" fill="none" stroke-linecap="round"></path><path d="M 228.000,204.469 C 229.327,213.494 229.458,213.476 231.000,222.469" stroke-width="2.715" stroke="black" fill="none" stroke-linecap="round"></path><path d="M 231.000,222.469 C 232.458,230.976 232.409,230.986 234.000,239.469" stroke-width="2.768" stroke="black" fill="none" stroke-linecap="round"></path><path d="M 234.000,239.469 C 235.409,246.986 235.743,246.928 237.000,254.469" stroke-width="2.953" stroke="black" fill="none" stroke-linecap="round"></path><path d="M 237.000,254.469 C 238.243,261.928 238.421,261.941 239.000,269.469" stroke-width="2.969" stroke="black" fill="none" stroke-linecap="round"></path><path d="M 239.000,269.469 C 239.421,274.941 238.365,275.072 239.000,280.469" stroke-width="3.268" stroke="black" fill="none" stroke-linecap="round"></path><path d="M 239.000,280.469 C 239.365,283.572 240.487,283.390 241.000,286.469" stroke-width="3.767" stroke="black" fill="none" stroke-linecap="round"></path><path d="M 241.000,286.469 C 241.487,289.390 242.685,291.626 241.000,292.469" stroke-width="4.411" stroke="black" fill="none" stroke-linecap="round"></path><path d="M 241.000,292.469 C 238.685,293.626 235.891,292.915 233.000,290.469" stroke-width="4.889" stroke="black" fill="none" stroke-linecap="round"></path><path d="M 233.000,290.469 C 229.391,287.415 230.300,286.069 228.000,281.469" stroke-width="4.475" stroke="black" fill="none" stroke-linecap="round"></path><path d="M 228.000,281.469 C 225.800,277.069 225.974,276.980 224.000,272.469" stroke-width="3.794" stroke="black" fill="none" stroke-linecap="round"></path><path d="M 224.000,272.469 C 222.474,268.980 221.816,269.142 221.000,265.469" stroke-width="3.857" stroke="black" fill="none" stroke-linecap="round"></path><path d="M 221.000,265.469 C 219.816,260.142 220.230,259.981 220.000,254.469" stroke-width="3.471" stroke="black" fill="none" stroke-linecap="round"></path><path d="M 220.000,254.469 C 219.730,247.981 220.000,247.969 220.000,241.469" stroke-width="3.205" stroke="black" fill="none" stroke-linecap="round"></path><path d="M 220.000,241.469 C 220.000,233.969 220.000,233.969 220.000,226.469" stroke-width="2.988" stroke="black" fill="none" stroke-linecap="round"></path><path d="M 220.000,226.469 C 220.000,221.969 220.000,221.969 220.000,217.469" stroke-width="3.440" stroke="black" fill="none" stroke-linecap="round"></path><path d="M 220.000,217.469 C 220.000,213.469 220.000,213.469 220.000,209.469" stroke-width="3.701" stroke="black" fill="none" stroke-linecap="round"></path><path d="M 220.000,209.469 C 220.000,202.469 219.141,202.343 220.000,195.469" stroke-width="3.247" stroke="black" fill="none" stroke-linecap="round"></path><path d="M 220.000,195.469 C 220.641,190.343 222.151,190.564 223.000,185.469" stroke-width="3.460" stroke="black" fill="none" stroke-linecap="round"></path><path d="M 223.000,185.469 C 223.651,181.564 222.508,181.408 223.000,177.469" stroke-width="3.708" stroke="black" fill="none" stroke-linecap="round"></path><path d="M 223.000,177.469 C 223.508,173.408 224.445,173.540 225.000,169.469" stroke-width="3.763" stroke="black" fill="none" stroke-linecap="round"></path><path d="M 225.000,169.469 C 225.945,162.540 225.500,162.469 226.000,155.469" stroke-width="3.258" stroke="black" fill="none" stroke-linecap="round"></path><path d="M 226.000,155.469 C 226.500,148.469 226.720,148.477 227.000,141.469" stroke-width="3.132" stroke="black" fill="none" stroke-linecap="round"></path><path d="M 227.000,141.469 C 227.220,135.977 227.000,135.969 227.000,130.469" stroke-width="3.270" stroke="black" fill="none" stroke-linecap="round"></path><path d="M 227.000,130.469 C 227.000,122.969 227.919,122.820 227.000,115.469" stroke-width="3.004" stroke="black" fill="none" stroke-linecap="round"></path><path d="M 227.000,115.469 C 226.419,110.820 225.500,110.969 224.000,106.469" stroke-width="3.404" stroke="black" fill="none" stroke-linecap="round"></path><path d="M 224.000,106.469 C 223.000,103.469 223.063,103.446 222.000,100.469" stroke-width="3.820" stroke="black" fill="none" stroke-linecap="round"></path><path d="M 222.000,100.469 C 220.563,96.446 221.164,96.076 219.000,92.469" stroke-width="3.712" stroke="black" fill="none" stroke-linecap="round"></path><path d="M 219.000,92.469 C 216.664,88.576 216.246,88.715 213.000,85.469" stroke-width="3.610" stroke="black" fill="none" stroke-linecap="round"></path><path d="M 213.000,85.469 C 210.746,83.215 210.376,83.607 208.000,81.469" stroke-width="3.886" stroke="black" fill="none" stroke-linecap="round"></path><path d="M 208.000,81.469 C 205.376,79.107 205.804,78.571 203.000,76.469" stroke-width="3.946" stroke="black" fill="none" stroke-linecap="round"></path><path d="M 203.000,76.469 C 199.804,74.071 199.750,73.719 196.000,72.469" stroke-width="3.854" stroke="black" fill="none" stroke-linecap="round"></path><path d="M 196.000,72.469 C 192.250,71.219 192.012,71.777 188.000,71.469" stroke-width="3.827" stroke="black" fill="none" stroke-linecap="round"></path><path d="M 188.000,71.469 C 185.512,71.277 185.492,71.635 183.000,71.469" stroke-width="4.176" stroke="black" fill="none" stroke-linecap="round"></path><path d="M 183.000,71.469 C 177.992,71.135 178.009,70.782 173.000,70.469" stroke-width="3.706" stroke="black" fill="none" stroke-linecap="round"></path><path d="M 173.000,70.469 C 170.009,70.282 169.888,69.781 167.000,70.469" stroke-width="3.967" stroke="black" fill="none" stroke-linecap="round"></path><path d="M 167.000,70.469 C 159.388,72.281 158.988,71.975 152.000,75.469" stroke-width="3.166" stroke="black" fill="none" stroke-linecap="round"></path><path d="M 152.000,75.469 C 145.988,78.475 146.332,79.259 141.000,83.469" stroke-width="3.077" stroke="black" fill="none" stroke-linecap="round"></path><path d="M 141.000,83.469 C 136.832,86.759 137.101,87.091 133.000,90.469" stroke-width="3.336" stroke="black" fill="none" stroke-linecap="round"></path><path d="M 133.000,90.469 C 128.601,94.091 128.266,93.704 124.000,97.469" stroke-width="3.300" stroke="black" fill="none" stroke-linecap="round"></path><path d="M 124.000,97.469 C 119.766,101.204 119.613,101.133 116.000,105.469" stroke-width="3.354" stroke="black" fill="none" stroke-linecap="round"></path><path d="M 116.000,105.469 C 109.613,113.133 109.299,113.053 104.000,121.469" stroke-width="2.775" stroke="black" fill="none" stroke-linecap="round"></path><path d="M 104.000,121.469 C 100.799,126.553 101.517,126.977 99.000,132.469" stroke-width="3.063" stroke="black" fill="none" stroke-linecap="round"></path><path d="M 99.000,132.469 C 96.017,138.977 96.088,139.011 93.000,145.469" stroke-width="2.996" stroke="black" fill="none" stroke-linecap="round"></path><path d="M 93.000,145.469 C 90.588,150.511 90.500,150.469 88.000,155.469" stroke-width="3.264" stroke="black" fill="none" stroke-linecap="round"></path><path d="M 88.000,155.469 C 85.500,160.469 85.392,160.418 83.000,165.469" stroke-width="3.297" stroke="black" fill="none" stroke-linecap="round"></path><path d="M 83.000,165.469 C 80.892,169.918 80.104,169.779 79.000,174.469" stroke-width="3.478" stroke="black" fill="none" stroke-linecap="round"></path><path d="M 79.000,174.469 C 78.104,178.279 79.284,178.492 79.000,182.469" stroke-width="3.714" stroke="black" fill="none" stroke-linecap="round"></path><path d="M 79.000,182.469 C 78.784,185.492 78.252,185.448 78.000,188.469" stroke-width="4.004" stroke="black" fill="none" stroke-linecap="round"></path><path d="M 78.000,188.469 C 77.752,191.448 78.000,191.469 78.000,194.469" stroke-width="4.110" stroke="black" fill="none" stroke-linecap="round"></path><path d="M 78.000,194.469 C 78.000,197.469 78.000,197.469 78.000,200.469" stroke-width="4.097" stroke="black" fill="none" stroke-linecap="round"></path><path d="M 78.000,200.469 C 78.000,202.969 77.308,203.161 78.000,205.469" stroke-width="4.227" stroke="black" fill="none" stroke-linecap="round"></path><path d="M 78.000,205.469 C 78.808,208.161 79.531,207.951 81.000,210.469" stroke-width="4.153" stroke="black" fill="none" stroke-linecap="round"></path><path d="M 81.000,210.469 C 83.031,213.951 82.460,214.421 85.000,217.469" stroke-width="4.385" stroke="black" fill="none" stroke-linecap="round"></path><path d="M 85.000,217.469 C 87.460,220.421 87.556,220.993 91.000,222.469" stroke-width="4.516" stroke="black" fill="none" stroke-linecap="round"></path><path d="M 91.000,222.469 C 94.556,223.993 94.984,223.218 99.000,223.469" stroke-width="4.519" stroke="black" fill="none" stroke-linecap="round"></path><path d="M 99.000,223.469 C 102.984,223.718 103.000,223.469 107.000,223.469" stroke-width="3.952" stroke="black" fill="none" stroke-linecap="round"></path><path d="M 107.000,223.469 C 113.500,223.469 113.514,223.751 120.000,223.469" stroke-width="3.317" stroke="black" fill="none" stroke-linecap="round"></path><path d="M 120.000,223.469 C 125.014,223.251 125.168,223.722 130.000,222.469" stroke-width="3.412" stroke="black" fill="none" stroke-linecap="round"></path><path d="M 130.000,222.469 C 138.668,220.222 138.344,218.942 147.000,216.469" stroke-width="2.904" stroke="black" fill="none" stroke-linecap="round"></path><path d="M 147.000,216.469 C 159.344,212.942 159.979,214.840 172.000,210.469" stroke-width="2.404" stroke="black" fill="none" stroke-linecap="round"></path><path d="M 172.000,210.469 C 187.479,204.840 186.682,202.692 202.000,196.469" stroke-width="1.973" stroke="black" fill="none" stroke-linecap="round"></path><path d="M 202.000,196.469 C 218.682,189.692 219.112,190.766 236.000,184.469" stroke-width="1.850" stroke="black" fill="none" stroke-linecap="round"></path><path d="M 236.000,184.469 C 248.612,179.766 248.250,178.719 261.000,174.469" stroke-width="2.016" stroke="black" fill="none" stroke-linecap="round"></path><path d="M 261.000,174.469 C 273.750,170.219 274.138,171.366 287.000,167.469" stroke-width="2.177" stroke="black" fill="none" stroke-linecap="round"></path><path d="M 287.000,167.469 C 290.638,166.366 290.364,165.308 294.000,164.469" stroke-width="3.110" stroke="black" fill="none" stroke-linecap="round"></path></svg>