<svg xmlns="http://www.w3.org/2000/svg" width="15.78" height="9.017" viewBox="0 0 15.78 9.017">
    <defs>
        <style>
            .cls-1{fill:#087efb}
        </style>
    </defs>
    <g id="iconfinder_icon-eye_211661" transform="translate(-32 -128)">
        <path id="Path_6192" d="M39.89 128c-2.885 0-5.132 1.719-7.89 4.508 2.374 2.385 4.368 4.508 7.89 4.508s6.108-2.691 7.89-4.459c-1.825-2.07-4.41-4.557-7.89-4.557zm0 7.724a3.216 3.216 0 1 1 3.156-3.216 3.191 3.191 0 0 1-3.156 3.216z" class="cls-1"/>
        <g id="Group_7647" transform="translate(38.048 130.631)">
            <path id="Path_6193" d="M205.542 203.45a1.131 1.131 0 0 1 .268-.729 1.681 1.681 0 0 0-.268-.021 1.878 1.878 0 1 0 1.842 1.877c0-.081-.007-.162-.014-.243a1.128 1.128 0 0 1-1.828-.884z" class="cls-1" transform="translate(-203.7 -202.7)"/>
        </g>
    </g>
</svg>
