<svg xmlns="http://www.w3.org/2000/svg" width="29.171" height="26.208" viewBox="0 0 29.171 26.208">
    <path fill="#fff" d="M27.072 18.115h-1.107V16.09a1.972 1.972 0 0 0-1.972-1.967h-8.569v-2.172H21.1a2.326 2.326 0 0 0 2.323-2.323V2.323A2.326 2.326 0 0 0 21.1 0H8.038a2.326 2.326 0 0 0-2.323 2.323v7.305a2.326 2.326 0 0 0 2.323 2.323h5.677v2.171H5.179a1.972 1.972 0 0 0-1.972 1.968v2.025H2.1a2.1 2.1 0 0 0-2.1 2.1v3.895a2.1 2.1 0 0 0 2.1 2.1h3.923a2.1 2.1 0 0 0 2.1-2.1v-3.896a2.1 2.1 0 0 0-2.1-2.1H4.916V16.09a.261.261 0 0 1 .263-.258h8.536v2.283h-1.091a2.1 2.1 0 0 0-2.1 2.1v3.895a2.1 2.1 0 0 0 2.1 2.1h3.923a2.1 2.1 0 0 0 2.1-2.1v-3.896a2.1 2.1 0 0 0-2.1-2.1h-1.123v-2.282h8.568a.261.261 0 0 1 .263.258v2.025h-1.107a2.1 2.1 0 0 0-2.1 2.1v3.895a2.1 2.1 0 0 0 2.1 2.1h3.923a2.1 2.1 0 0 0 2.1-2.1v-3.896a2.1 2.1 0 0 0-2.099-2.099zM18.916 3.7h.916a.855.855 0 0 1 0 1.709h-.916a.855.855 0 0 1 0-1.709zm-9.5 0h6.643a.855.855 0 1 1 0 1.709H9.412a.855.855 0 0 1 0-1.709zm0 4.547a.855.855 0 0 1 0-1.709h9.5a.855.855 0 1 1 0 1.709zm0 0"/>
</svg>
