<svg xmlns="http://www.w3.org/2000/svg" width="26.547" height="27.461" viewBox="0 0 26.547 27.461">
    <g>
        <path fill="#fff" d="M30.677 23.865a3.21 3.21 0 0 0-2.526 1.235l-3.977-2.257a5.324 5.324 0 0 0 0-4.192L28.1 16.4a2.235 2.235 0 0 0 1.72.752 2.311 2.311 0 1 0-2.311-2.311 2.723 2.723 0 0 0 .107.7l-3.977 2.311a5.692 5.692 0 0 0-.539-.652 4.981 4.981 0 0 0-3.063-1.451v-3.061a3.162 3.162 0 0 0-.484-6.288 3.143 3.143 0 0 0-3.171 3.171 3.177 3.177 0 0 0 2.687 3.117v3.063a4.711 4.711 0 0 0-3.063 1.449 5.692 5.692 0 0 0-.537.645l-2.794-1.612a3.145 3.145 0 0 0 .107-.7 2.311 2.311 0 1 0-2.311 2.311 2.434 2.434 0 0 0 1.72-.752l2.794 1.612a5.324 5.324 0 0 0 0 4.192l-2.042 1.184A3.144 3.144 0 0 0 7.3 26.015a3.171 3.171 0 1 0 6.341 0 2.643 2.643 0 0 0-.215-1.129l2.042-1.186a5.692 5.692 0 0 0 .537.645 4.981 4.981 0 0 0 3.064 1.455v3.493a2.311 2.311 0 1 0 .967 0V25.8a4.711 4.711 0 0 0 3.064-1.451 5.691 5.691 0 0 0 .537-.645l4.03 2.311a3.374 3.374 0 0 0-.161 1.021 3.171 3.171 0 1 0 3.171-3.171z" transform="translate(-7.3 -6.4)"/>
    </g>
</svg>
