<svg xmlns="http://www.w3.org/2000/svg" id="dashboard" width="26.014" height="26.014" viewBox="0 0 26.014 26.014">
    <defs>
        <style>
            .cls-1{fill:#fff}
        </style>
    </defs>
    <path id="Path_64" d="M10.026 0H1.9A1.9 1.9 0 0 0 0 1.9v4.874a1.9 1.9 0 0 0 1.9 1.9h8.129a1.9 1.9 0 0 0 1.9-1.9V1.9A1.9 1.9 0 0 0 10.026 0zm0 0" class="cls-1"/>
    <path id="Path_65" d="M10.026 213.332H1.9a1.9 1.9 0 0 0-1.9 1.9v11.378a1.9 1.9 0 0 0 1.9 1.9h8.129a1.9 1.9 0 0 0 1.9-1.9v-11.381a1.9 1.9 0 0 0-1.903-1.897zm0 0" class="cls-1" transform="translate(0 -202.493)"/>
    <path id="Path_66" d="M287.358 341.332h-8.129a1.9 1.9 0 0 0-1.9 1.9v4.878a1.9 1.9 0 0 0 1.9 1.9h8.129a1.9 1.9 0 0 0 1.9-1.9v-4.878a1.9 1.9 0 0 0-1.9-1.9zm0 0" class="cls-1" transform="translate(-263.241 -323.99)"/>
    <path id="Path_67" d="M287.358 0h-8.129a1.9 1.9 0 0 0-1.9 1.9v11.378a1.9 1.9 0 0 0 1.9 1.9h8.129a1.9 1.9 0 0 0 1.9-1.9V1.9a1.9 1.9 0 0 0-1.9-1.9zm0 0" class="cls-1" transform="translate(-263.241)"/>
</svg>
