<svg xmlns="http://www.w3.org/2000/svg" id="in_sign" width="26.297" height="26.297" viewBox="0 0 26.297 26.297">
    <defs>
        <style>
            .cls-1{fill:#fff}
        </style>
    </defs>
    <g id="Group_1292">
        <path id="Path_1048" d="M8.644 7C7.629 7 7 7.787 7 9.054s.629 2.054 1.644 2.054 1.644-.787 1.644-2.054S9.658 7 8.644 7z" class="cls-1" transform="translate(4.505 4.505)"/>
        <path id="Path_1049" d="M13.148 0A13.148 13.148 0 1 0 26.3 13.148 13.149 13.149 0 0 0 13.148 0zm8.218 13.97a3.273 3.273 0 0 1-5.766 2.137 3.079 3.079 0 0 1-2.454 1.15c-1.936 0-3.287-1.52-3.287-3.7s1.351-3.7 3.287-3.7a3.172 3.172 0 0 1 1.714.493.821.821 0 0 1 1.573.329v3.291a1.644 1.644 0 1 0 3.287 0v-.478a6.773 6.773 0 0 0-5.695-6.86A6.579 6.579 0 0 0 11.6 19.545a6.625 6.625 0 0 0 4.466-.5.823.823 0 1 1 .731 1.474 8.149 8.149 0 0 1-3.637.853 8.593 8.593 0 0 1-1.925-.22 8.106 8.106 0 0 1-6.122-6.265A8.229 8.229 0 0 1 14.238 5a8.422 8.422 0 0 1 7.128 8.492z" class="cls-1"/>
    </g>
</svg>
