<svg xmlns="http://www.w3.org/2000/svg" width="26.011" height="26.012" viewBox="0 0 26.011 26.012">
    <defs>
        <style>
            .cls-2{fill:#fff}
        </style>
    </defs>
    <g id="repost" opacity="0.4" transform="translate(-1 -1)">
        <g id="Group_1291" transform="translate(1 1)">
            <path id="Path_1044" d="M29.535 20.008a1.219 1.219 0 0 0-1.219 1.219v4.464h-3.153l.358-.357a1.219 1.219 0 0 0-1.721-1.723l-2.439 2.439a1.219 1.219 0 0 0 0 1.724l2.439 2.438a1.219 1.219 0 0 0 1.724-1.724l-.358-.358h4.372a1.219 1.219 0 0 0 1.219-1.219v-5.684a1.219 1.219 0 0 0-1.222-1.219z" class="cls-2" transform="translate(-4.743 -4.557)"/>
            <path id="Path_1045" d="M10.4 3.8L7.959 1.357a1.219 1.219 0 1 0-1.724 1.724l.357.358H2.219A1.219 1.219 0 0 0 1 4.658v5.694a1.219 1.219 0 1 0 2.439 0V5.877H6.6l-.363.363A1.22 1.22 0 0 0 7.96 7.964l2.44-2.445a1.221 1.221 0 0 0 0-1.719z" class="cls-2" transform="translate(-1 -1)"/>
            <path id="Path_1046" d="M29.819 7.909A6.909 6.909 0 1 1 22.909 1a6.919 6.919 0 0 1 6.91 6.909z" class="cls-2" transform="translate(-3.807 -1)"/>
            <path id="Path_1047" d="M14.819 22.909A6.909 6.909 0 1 1 7.909 16a6.914 6.914 0 0 1 6.91 6.909z" class="cls-2" transform="translate(-1 -3.807)"/>
        </g>
    </g>
</svg>
