<svg xmlns="http://www.w3.org/2000/svg" width="26.596" height="25.65" viewBox="0 0 26.596 25.65">
    <defs>
        <style>
            .cls-2{fill:#fff}
        </style>
    </defs>
    <g id="signed" opacity="0.4" transform="translate(-4 -4)">
        <g id="Group_1293" transform="translate(4 4)">
            <path id="Path_1050" d="M36.757 47.944l-.333 2 1.568-1.29z" class="cls-2" transform="translate(-21.573 -27.816)"/>
            <rect id="Rectangle_967" width="13.712" height="2.165" class="cls-2" rx=".5" transform="translate(2.887 2.634)"/>
            <path id="Path_1051" d="M21.51 25.126l-3.023 2.486a.458.458 0 0 1-.743-.429l.641-3.861a.452.452 0 0 1 .052-.154l4.8-8.3V4.458A.458.458 0 0 0 22.779 4H4.458A.458.458 0 0 0 4 4.458v24.734a.458.458 0 0 0 .458.458h18.321a.458.458 0 0 0 .458-.458V22.2L21.618 25a.461.461 0 0 1-.108.123zm-2.4-4.637h-7.781v-.916h7.787zm1.374-2.748h-9.155v-.916h9.161zm.458-2.748h-9.613v-.916h9.619zm0-2.748h-9.613v-.916h9.619zM5.832 9.038V6.29a.458.458 0 0 1 .458-.458h14.657a.458.458 0 0 1 .458.458v2.748a.458.458 0 0 1-.458.458H6.29a.458.458 0 0 1-.458-.458zm.458 8.7v-.916h4.122v.916zm4.122 1.832v.916H6.29v-.916zM6.29 14.993v-.916h4.122v.916zm0-2.748v-.916h4.122v.916zm0 10.077h4.122v.916H6.29zM15.1 27.8a.456.456 0 0 1-.545-.3l-.62-1.86-1.313 1.97a.449.449 0 0 1-.41.2.458.458 0 0 1-.381-.252L11.25 26.4l-.929 1.237-.733-.55 1.374-1.832a.458.458 0 0 1 .779.07l.563 1.126 1.396-2.094a.458.458 0 0 1 .815.109l.782 2.346 1.42-.355.222.889zm2.179-4.567h-5.95v-.916h5.954z" class="cls-2" transform="translate(-4 -4)"/>
            <path id="Rectangle_968" d="M0 0H13.741V1.832H0z" class="cls-2" transform="rotate(-59.991 24.393 -3.78)"/>
            <path id="Path_1052" d="M55.875 15.7l-.793-.458a.458.458 0 0 0-.625.168l-.688 1.19 1.586.916.687-1.191a.458.458 0 0 0-.167-.626z" class="cls-2" transform="translate(-30.973 -10.059)"/>
            <path id="Path_1053" d="M57.2 22.482l-3.206 5.556-.794-.458 2.977-5.157-.953-.55.453-.792 1.351.779a.452.452 0 0 1 .169.623z" class="cls-2" transform="translate(-30.665 -13.257)"/>
        </g>
    </g>
</svg>
