<svg xmlns="http://www.w3.org/2000/svg" width="40.353" height="26.299" viewBox="0 0 40.353 26.299">
    <g opacity="0.4">
        <path fill="#fff" d="M38.54 26.566l-9.174 1.092v-.947l9.174-1.092zm-1.94 2.288l-7.239.514v.943L36.6 29.8zm.678 2.98l-7.916.19v.941l7.916-.19zM38.54 34.9l-9.174-.219v.941l9.174.218zm-.624 3.043l-8.55-.607v.942l8.55.607zm-3.045 2.7l-5.505-.656v.947l5.505.656zm10.482-19.97v26.3l-1.606-.248v.248l-1.605-.248v.248l-15.826-2.436v-8.724l-1.992 1.521v-2.25h-3.5v9.453L5 46.972v-26.3l15.826 2.435v9.453h3.5v-2.25l1.992 1.521v-8.723l15.826-2.435v.247l1.605-.247v.247zM8.6 29.655l7.239.514v-.942L8.6 28.713zm0 3.091l7.917.19V32L8.6 31.806zm5.505 7.677l-5.505.656v.947l5.506-.656zm3.046-3.041l-8.551.607v.942l8.551-.607zm.623-2.7L8.6 34.9v.94l9.174-.218zm0-7.968L8.6 25.619v.947l9.174 1.092zm3.049 8.373V32.56h-1.671v2.523zm20.4-13.341l-13.989 2.149v8.637l1.69 1.291-1.69 1.29v8.637l13.99 2.15V21.742zm1.606 0l-.688.106V45.8l.688.105zm1.606 0l-.688.105V45.8l.688.105z" transform="translate(-5 -20.673)"/>
    </g>
</svg>
