<svg xmlns="http://www.w3.org/2000/svg" width="13.698" height="13.697" viewBox="0 0 13.698 13.697">
    <path id="pen-alt" fill="#0e73d8" d="M13.31 1.982L11.7.374a1.285 1.285 0 0 0-1.817 0l-1.51 1.513L11.8 5.311 13.31 3.8a1.285 1.285 0 0 0 0-1.818zm-6.6-.549a1.07 1.07 0 0 0-1.513 0L2.017 4.61a.428.428 0 0 0 0 .605l.605.605a.428.428 0 0 0 .605 0L5.952 3.1l.605.605L2.5 7.757a8.749 8.749 0 0 0-2.506 5.218v.006a.642.642 0 0 0 .709.709 8.749 8.749 0 0 0 5.226-2.509l5.265-5.265L8.978 3.7l-2.27-2.27z" transform="translate(.011 .003)"/>
</svg>
