<svg xmlns="http://www.w3.org/2000/svg" width="35.343" height="28.864" viewBox="0 0 35.343 28.864">
    <g id="folder_1_" data-name="folder (1)" transform="translate(0 -5.5)">
        <path id="Path_1028" fill="#ebc55f" d="M9.068 23.5a.334.334 0 0 0-.321.246L2 40.583v.589c0 .432-.028.589.333.589H28.7a1.5 1.5 0 0 0 1.443-1.068l6.024-16.6V23.5z" data-name="Path 1028" transform="translate(-.822 -7.397)"/>
        <path id="Path_1029" fill="#e6b01f" d="M7.5 14.925h24.31v-3.692a1.611 1.611 0 0 0-1.61-1.61H15.619L12.674 5.5H1.609A1.611 1.611 0 0 0 0 7.109v24.62l6.057-15.737A1.5 1.5 0 0 1 7.5 14.925z" data-name="Path 1029"/>
    </g>
</svg>
